<?xml version="1.0" encoding="UTF-8"?>
<svg id="Capa_1" data-name="Capa 1" xmlns="http://www.w3.org/2000/svg" xmlns:xlink="http://www.w3.org/1999/xlink" viewBox="0 0 119 119">
  <defs>
    <style>
      .cls-1 {
        fill: none;
      }

      .cls-1, .cls-2, .cls-3 {
        stroke-width: 0px;
      }

      .cls-2 {
        fill: #fff;
      }

      .cls-3 {
        fill: url(#Degradado_sin_nombre);
      }
    </style>
    <linearGradient id="Degradado_sin_nombre" data-name="Degradado sin nombre" x1="34.39" y1="696.29" x2="90.32" y2="886.1" gradientTransform="translate(0 -722)" gradientUnits="userSpaceOnUse">
      <stop offset="0" stop-color="#e9c35a"/>
      <stop offset=".22" stop-color="#cc9f2d"/>
      <stop offset=".58" stop-color="#f9cf6c"/>
      <stop offset="1" stop-color="#b3800b"/>
    </linearGradient>
  </defs>
  <rect class="cls-1" width="119" height="119"/>
  <path class="cls-3" d="M59.5,119c32.86,0,59.5-26.64,59.5-59.5S92.36,0,59.5,0,0,26.64,0,59.5s26.64,59.5,59.5,59.5Z"/>
  <g>
    <path class="cls-2" d="M28.23,62.92c-.41-8.5-.85-17-1.22-25.51-.15-3.36,1.17-4.69,4.58-4.78,14.7-.42,29.41-.84,44.11-1.24,3.17-.09,4.6,1.43,4.67,4.75.35,15.57.71,31.14,1.07,46.71.03,1.35.13,2.69.14,4.04.02,2.26-1.46,3.91-3.73,4.06-6.99.45-13.98.86-20.97,1.26-7.04.41-14.09.81-21.14,1.19-1.18.06-2.39.18-3.53-.04-1.62-.33-2.6-1.91-2.7-3.96-.45-8.82-.88-17.65-1.32-26.47,0,0,.02,0,.02,0ZM77.8,77.06c-.43-14.09-.86-27.96-1.28-41.93-15.34.42-30.45.84-45.77,1.26.85,14.45,1.69,28.73,2.54,43.2,14.85-.84,29.56-1.68,44.51-2.53Z"/>
    <path class="cls-2" d="M89.15,30.03c-15.3-1.7-30.42-3.38-45.65-5.07-.46,1.72-.9,3.37-1.35,5.05h-3.82c.72-2.44,1.26-4.83,2.15-7.07.55-1.38,1.86-1.89,3.49-1.7,14.92,1.69,29.84,3.32,44.77,4.97,2.59.29,4.56,2.89,4.23,5.72-.44,3.74-.96,7.47-1.43,11.21-1.24,9.88-2.47,19.75-3.7,29.63-.42,3.36-.82,6.73-1.29,10.09-.18,1.29-.58,2.51-2.2,2.97-.06-.33-.14-.57-.14-.81-.25-8.63.26-17.2,1.47-25.76,1.3-9.16,2.28-18.37,3.39-27.56.06-.47.06-.95.1-1.66Z"/>
    <path class="cls-2" d="M61.27,64.32c1.99-2.38,3.87-4.65,5.78-6.89,1.85-2.18,3.25-1.96,5.04.23,2.54,3.09,3.58,6.47,3.17,10.43-.22,2.07-.04,4.17-.04,6.4-13.17.85-26.2,1.69-39.38,2.54-.4-4.36-.83-8.57-1.15-12.8-.04-.57.29-1.27.64-1.77,2.98-4.28,6.01-8.53,9.03-12.78,1.48-2.09,2.83-2.17,4.51-.18,3.57,4.24,7.11,8.51,10.66,12.76.54.65,1.09,1.29,1.75,2.06Z"/>
    <path class="cls-2" d="M73.02,44.88c0,2.78-2.11,4.96-4.83,4.98-2.62.02-4.85-2.24-4.91-4.96-.05-2.72,2.28-5.1,4.97-5.07,2.67.03,4.76,2.25,4.76,5.06Z"/>
  </g>
</svg>