<svg width="119" height="119" viewBox="0 0 119 119" fill="none" xmlns="http://www.w3.org/2000/svg">
<path d="M59.5 119C92.3609 119 119 92.3612 119 59.5002C119 26.6393 92.3609 0.000244141 59.5 0.000244141C26.6391 0.000244141 0 26.6393 0 59.5002C0 92.3612 26.6391 119 59.5 119Z" fill="url(#paint0_linear_1_71)"/>
<path d="M72.907 62.7833C72.907 65.5033 72.1004 68.1623 70.5891 70.4239C69.0778 72.6855 66.9298 74.4481 64.4167 75.4888C61.9037 76.5296 59.1384 76.8017 56.4706 76.2707C53.8029 75.7398 51.3525 74.4296 49.4295 72.506C47.5064 70.5823 46.1969 68.1316 45.6668 65.4637C45.1366 62.7958 45.4095 60.0306 46.451 57.5178C47.4924 55.005 49.2557 52.8575 51.5177 51.3469C53.7797 49.8363 56.4389 49.0305 59.159 49.0313C62.8056 49.0323 66.3024 50.4816 68.8805 53.0605C71.4587 55.6394 72.907 59.1367 72.907 62.7833Z" fill="white"/>
<path d="M48.311 27.0002L41.694 34.2322H30.232C28.3157 34.2378 26.4794 35.0015 25.1243 36.3566C23.7693 37.7116 23.0055 39.5479 23 41.4642V84.8542C23.0055 86.7706 23.7693 88.6069 25.1243 89.9619C26.4794 91.317 28.3157 92.0807 30.232 92.0862H88.086C90.0023 92.0807 91.8386 91.317 93.1937 89.9619C94.5487 88.6069 95.3125 86.7706 95.318 84.8542V41.4642C95.3125 39.5479 94.5487 37.7116 93.1937 36.3566C91.8386 35.0015 90.0023 34.2378 88.086 34.2322H76.624L70.007 27.0002H48.311ZM59.159 81.2392C55.5831 81.2392 52.0875 80.1789 49.1143 78.1922C46.141 76.2056 43.8237 73.3818 42.4553 70.0782C41.0868 66.7745 40.7288 63.1392 41.4264 59.632C42.124 56.1248 43.846 52.9033 46.3745 50.3748C48.903 47.8462 52.1246 46.1243 55.6318 45.4266C59.1389 44.729 62.7742 45.0871 66.0779 46.4555C69.3816 47.8239 72.2053 50.1413 74.192 53.1145C76.1786 56.0878 77.239 59.5834 77.239 63.1592C77.2374 67.9539 75.332 72.5517 71.9417 75.942C68.5514 79.3323 63.9536 81.2377 59.159 81.2392Z" fill="white"/>
<defs>
<linearGradient id="paint0_linear_1_71" x1="26.299" y1="-23.3238" x2="82.229" y2="166.481" gradientUnits="userSpaceOnUse">
<stop stop-color="#E9C35A"/>
<stop offset="0.22" stop-color="#CC9F2D"/>
<stop offset="0.582" stop-color="#F9CF6C"/>
<stop offset="1" stop-color="#B3800B"/>
</linearGradient>
</defs>
</svg>
