<svg width="119" height="119" viewBox="0 0 119 119" fill="none" xmlns="http://www.w3.org/2000/svg">
<path d="M59.5 119C92.3609 119 119 92.3614 119 59.5005C119 26.6395 92.3609 0.000488281 59.5 0.000488281C26.6391 0.000488281 0 26.6395 0 59.5005C0 92.3614 26.6391 119 59.5 119Z" fill="url(#paint0_linear_1_182)"/>
<path d="M48.809 59.9245C52.0649 59.9245 55.2476 58.959 57.9548 57.1501C60.662 55.3413 62.7719 52.7703 64.0179 49.7622C65.2639 46.7542 65.5899 43.4442 64.9547 40.2509C64.3195 37.0576 62.7516 34.1244 60.4494 31.8221C58.1471 29.5199 55.2139 27.952 52.0206 27.3168C48.8273 26.6816 45.5173 27.0076 42.5093 28.2536C39.5012 29.4996 36.9302 31.6095 35.1213 34.3167C33.3125 37.0239 32.347 40.2066 32.347 43.4625C32.3469 45.6244 32.7726 47.7651 33.5998 49.7624C34.4271 51.7597 35.6397 53.5745 37.1683 55.1032C38.697 56.6318 40.5118 57.8444 42.5091 58.6717C44.5064 59.4989 46.6471 59.9246 48.809 59.9245ZM60.332 64.0405H58.184C55.2443 65.3961 52.0457 66.0982 48.8085 66.0982C45.5713 66.0982 42.3727 65.3961 39.433 64.0405H37.285C32.7011 64.0418 28.3054 65.8633 25.0641 69.1046C21.8228 72.3459 20.0013 76.7416 20 81.3255L20 86.6755C20.0005 88.3125 20.6511 89.8823 21.8086 91.0399C22.9662 92.1974 24.536 92.848 26.173 92.8485H71.444C73.081 92.848 74.6508 92.1974 75.8084 91.0399C76.9659 89.8823 77.6165 88.3125 77.617 86.6755V81.3255C77.6157 76.7416 75.7942 72.3459 72.5529 69.1046C69.3116 65.8633 64.9159 64.0418 60.332 64.0405ZM101.873 47.5265L98.3 43.9125C98.1592 43.7694 97.9915 43.6555 97.8065 43.5773C97.6215 43.4992 97.423 43.4584 97.2222 43.4572C97.0214 43.4559 96.8224 43.4944 96.6365 43.5703C96.4506 43.6462 96.2815 43.7581 96.139 43.8995L82.659 57.2755L76.807 51.3855C76.6662 51.2424 76.4985 51.1285 76.3135 51.0503C76.1286 50.9722 75.93 50.9314 75.7292 50.9302C75.5284 50.9289 75.3294 50.9674 75.1435 51.0433C74.9576 51.1192 74.7885 51.2311 74.646 51.3725L71.033 54.9605C70.8899 55.1013 70.776 55.269 70.6979 55.454C70.6197 55.6389 70.5789 55.8375 70.5777 56.0383C70.5765 56.2391 70.6149 56.4381 70.6908 56.624C70.7667 56.8099 70.8786 56.979 71.02 57.1215L81.527 67.7055C81.6678 67.8486 81.8355 67.9625 82.0205 68.0406C82.2054 68.1188 82.404 68.1596 82.6048 68.1608C82.8056 68.162 83.0046 68.1236 83.1905 68.0477C83.3764 67.9718 83.5455 67.8599 83.688 67.7185L101.86 49.6875C102.146 49.4015 102.308 49.0142 102.31 48.6097C102.313 48.2051 102.156 47.8159 101.873 47.5265Z" fill="white"/>
<defs>
<linearGradient id="paint0_linear_1_182" x1="26.299" y1="-23.3235" x2="82.229" y2="166.481" gradientUnits="userSpaceOnUse">
<stop stop-color="#E9C35A"/>
<stop offset="0.22" stop-color="#CC9F2D"/>
<stop offset="0.582" stop-color="#F9CF6C"/>
<stop offset="1" stop-color="#B3800B"/>
</linearGradient>
</defs>
</svg>
