<svg width="119" height="119" viewBox="0 0 119 119" fill="none" xmlns="http://www.w3.org/2000/svg">
<g clip-path="url(#clip0_19_22)">
<path d="M59.5 119C92.3609 119 119 92.3609 119 59.5C119 26.6391 92.3609 0 59.5 0C26.6391 0 0 26.6391 0 59.5C0 92.3609 26.6391 119 59.5 119Z" fill="url(#paint0_linear_19_22)"/>
<path d="M27.623 87.6229C27.6223 88.2302 27.7415 88.8317 27.9736 89.3929C28.2057 89.9541 28.5462 90.464 28.9756 90.8934C29.405 91.3228 29.9149 91.6633 30.4761 91.8954C31.0373 92.1275 31.6387 92.2466 32.246 92.2459H55.362V69.131H27.623V87.6229ZM64.608 92.2459H87.723C88.3303 92.2466 88.9317 92.1275 89.4929 91.8954C90.0541 91.6633 90.564 91.3228 90.9934 90.8934C91.4228 90.464 91.7633 89.9541 91.9954 89.3929C92.2275 88.8317 92.3467 88.2302 92.346 87.6229V69.131H64.608V92.2459ZM92.347 46.0149H86.264C87.2055 44.233 87.7058 42.2512 87.723 40.2359C87.718 36.8658 86.377 33.6351 83.9939 31.2521C81.6108 28.869 78.3802 27.528 75.01 27.5229C69 27.5229 65.11 30.5999 60.129 37.3899C55.145 30.5999 51.259 27.5229 45.249 27.5229C41.8785 27.5277 38.6474 28.8687 36.2641 31.2521C33.8808 33.6354 32.5398 36.8664 32.535 40.2369C32.5451 42.2532 33.0458 44.2366 33.994 46.0159H27.623C27.0157 46.0153 26.4143 46.1344 25.8531 46.3665C25.2919 46.5986 24.782 46.9391 24.3526 47.3685C23.9232 47.7979 23.5827 48.3078 23.3506 48.869C23.1185 49.4302 22.9993 50.0317 23 50.6389V62.1959C23.0016 62.8086 23.2457 63.3958 23.6789 63.829C24.1122 64.2623 24.6993 64.5064 25.312 64.5079H94.658C95.2707 64.5064 95.8578 64.2623 96.2911 63.829C96.7243 63.3958 96.9684 62.8086 96.97 62.1959V50.6389C96.9708 50.0316 96.8518 49.43 96.6197 48.8687C96.3877 48.3074 96.0472 47.7974 95.6178 47.3679C95.1883 46.9384 94.6784 46.5978 94.1172 46.3656C93.5559 46.1335 92.9544 46.0143 92.347 46.0149ZM45.235 46.0149C44.4761 46.0149 43.7246 45.8655 43.0235 45.575C42.3223 45.2846 41.6853 44.8589 41.1486 44.3223C40.612 43.7857 40.1863 43.1486 39.8959 42.4475C39.6055 41.7463 39.456 40.9949 39.456 40.2359C39.456 39.477 39.6055 38.7256 39.8959 38.0244C40.1863 37.3233 40.612 36.6862 41.1486 36.1496C41.6853 35.6129 42.3223 35.1873 43.0235 34.8968C43.7246 34.6064 44.4761 34.4569 45.235 34.4569C48.11 34.4569 50.235 34.9339 57.674 46.0149H45.235ZM75.011 46.0149H62.571C70 34.9629 72.063 34.4579 75.01 34.4579C76.5427 34.4579 78.0126 35.0668 79.0964 36.1506C80.1801 37.2344 80.789 38.7043 80.789 40.2369C80.789 41.7696 80.1801 43.2395 79.0964 44.3233C78.0126 45.4071 76.5427 46.0159 75.01 46.0159L75.011 46.0149Z" fill="white"/>
</g>
<defs>
<linearGradient id="paint0_linear_19_22" x1="26.299" y1="-23.324" x2="82.229" y2="166.481" gradientUnits="userSpaceOnUse">
<stop stop-color="#E9C35A"/>
<stop offset="0.22" stop-color="#CC9F2D"/>
<stop offset="0.582" stop-color="#F9CF6C"/>
<stop offset="1" stop-color="#B3800B"/>
</linearGradient>
<clipPath id="clip0_19_22">
<rect width="119" height="119" fill="white"/>
</clipPath>
</defs>
</svg>
