<?xml version="1.0" encoding="utf-8"?>
<!-- Generator: Adobe Illustrator 28.3.0, SVG Export Plug-In . SVG Version: 6.00 Build 0)  -->
<svg version="1.1" id="Capa_1" xmlns="http://www.w3.org/2000/svg" xmlns:xlink="http://www.w3.org/1999/xlink" x="0px" y="0px"
	 viewBox="0 0 202 838" style="enable-background:new 0 0 202 838;" xml:space="preserve">
<style type="text/css">
	.st0{fill:#FFFFFF;filter:url(#Adobe_OpacityMaskFilter);}
	.st1{mask:url(#mask0_1_356_00000089555421639519130870000001316836843436866193_);}
	.st2{fill:#FFFFFF;}
	.st3{fill:#F7F7F7;}
	.st4{fill:none;stroke:#FFFFFF;stroke-width:0.1195;stroke-miterlimit:10;}
</style>
<defs>
	<filter id="Adobe_OpacityMaskFilter" filterUnits="userSpaceOnUse" x="1.7" y="0" width="200.3" height="52.4">
		<feColorMatrix  type="matrix" values="1 0 0 0 0  0 1 0 0 0  0 0 1 0 0  0 0 0 1 0"/>
	</filter>
</defs>
<mask maskUnits="userSpaceOnUse" x="1.7" y="0" width="200.3" height="52.4" id="mask0_1_356_00000089555421639519130870000001316836843436866193_">
	<path class="st0" d="M202-4.6H1.7v57H202V-4.6z"/>
</mask>
<g class="st1">
	<path class="st2" d="M73.3,11.3c-4.9,5-9.8,10.2-12.6,16.7c-2.1,4.8-3.2,10.2-6.6,14.4c-1.1,1.4-2.5,2.6-4.1,3.5c0,0-0.1,0-0.1,0
		c0,0-0.1,0-0.1-0.1c0,0,0-0.1,0-0.1c0,0,0-0.1,0.1-0.1c1.4-1,2.7-2.2,3.7-3.6c3.2-4.2,4.4-9.5,6.6-14.2c3-6.5,8-11.6,12.9-16.7
		c0,0,0,0,0,0c0,0,0,0,0.1,0c0,0,0,0,0.1,0c0,0,0,0,0.1,0c0,0,0,0,0,0.1c0,0,0,0,0,0.1C73.4,11.2,73.4,11.2,73.3,11.3
		C73.4,11.2,73.4,11.3,73.3,11.3z"/>
	<path class="st2" d="M72.7,12c-1.6,1.5-3.6,2.3-5.4,3.3c-1.9,0.9-3.9,1.7-6,2.1c0,0-0.1,0-0.1,0c0,0,0,0,0-0.1c0,0,0-0.1,0-0.1
		c0,0,0,0,0.1-0.1c2.9-1.2,6-2,8.8-3.6c0.9-0.5,1.9-1,2.6-1.8C72.6,11.7,72.8,11.9,72.7,12"/>
	<path class="st2" d="M65.9,19.3c-3.9,1.8-7.9,3.6-12,4.9c-1.4,0.4-2.8,0.8-4.2,1.1c0,0-0.1,0-0.1,0c0,0,0,0-0.1-0.1
		c0,0,0-0.1,0-0.1c0,0,0,0,0.1-0.1c1.4-0.5,2.7-0.9,4.1-1.3c1.4-0.4,2.7-0.9,4.1-1.3c2.7-0.9,5.4-2,8-3.3C65.9,19,66,19.2,65.9,19.3
		"/>
	<path class="st2" d="M63.1,23.4c-4.7,4.6-9.6,9.2-15.6,11.9c0,0-0.1,0-0.1,0c0,0,0,0-0.1-0.1c0,0,0-0.1,0-0.1c0,0,0-0.1,0-0.1
		c4-2.5,8.5-5.3,12-8.4c1.2-1.1,2.4-2.2,3.5-3.4C63,23.1,63.2,23.3,63.1,23.4"/>
	<path class="st2" d="M68.4,16.4c-2.3,6.2-2.5,12.9-2.5,19.5c0,0,0,0.1,0,0.1c0,0,0,0-0.1,0s-0.1,0-0.1,0c0,0,0,0,0-0.1
		c-0.7-4.9,0-10,1.1-14.8c0.4-1.6,0.9-3.2,1.4-4.8c0,0,0-0.1,0.1-0.1c0,0,0.1,0,0.1,0C68.4,16.3,68.4,16.3,68.4,16.4
		C68.4,16.4,68.4,16.4,68.4,16.4z"/>
	<path class="st2" d="M62.7,24.3c-1.8,6.1-2.9,12.5-1.6,18.8c0,0,0,0.1,0,0.1c0,0,0,0-0.1,0.1c0,0-0.1,0-0.1,0s0,0-0.1-0.1
		c-1.7-4.6-0.7-9.6,0.4-14.3c0.4-1.6,0.8-3.1,1.2-4.6c0,0,0-0.1,0.1-0.1c0,0,0.1,0,0.1,0C62.6,24.1,62.6,24.2,62.7,24.3
		C62.7,24.2,62.7,24.2,62.7,24.3"/>
	<path class="st2" d="M66.5,15.2c-1.5-0.8-3.3-1.1-5-0.7c-1.4,0.3-2.7,1-4.1,1.6c-1.4,0.7-2.9,1.2-4.4,1.6c2.3,0.6,4.7,1,7.1,0.8
		c2.4-0.2,4.8-1.3,6.1-3.2"/>
	<path class="st2" d="M66.4,15.3c-3.8-2-6.6-0.2-10,1.4c-1.1,0.5-2.2,0.9-3.4,1.2l0-0.4c1.1,0.3,2.3,0.5,3.5,0.6
		c3.4,0.5,7.3-0.1,9.6-2.9c0,0,0,0,0,0c0,0,0,0,0,0c0,0,0,0,0,0c0,0,0,0,0,0C66.3,15.3,66.3,15.3,66.4,15.3
		c-0.1,0.1-0.1,0.1-0.1,0.1c-0.7,1-1.6,1.9-2.7,2.4c-2.2,1.1-4.7,1.2-7.1,0.9c-1.2-0.2-2.4-0.4-3.5-0.7c0,0-0.1,0-0.1-0.1
		c0,0,0-0.1,0-0.1c0,0,0-0.1,0-0.1c0,0,0.1-0.1,0.1-0.1c1.1-0.3,2.3-0.7,3.4-1.1c2.2-0.9,4.3-2.3,6.7-2.2c1.2,0,2.4,0.3,3.5,0.9
		c0,0,0,0,0,0c0,0,0,0,0,0c0,0,0,0,0,0c0,0,0,0,0,0c0,0,0,0,0,0C66.5,15.3,66.5,15.3,66.4,15.3C66.5,15.3,66.5,15.3,66.4,15.3
		C66.4,15.3,66.4,15.3,66.4,15.3z"/>
	<path class="st2" d="M57.7,22.6c-2.8-0.9-5.9-0.8-8.8,0s-5.6,2.1-8.2,3.6c2.1-0.1,4.1,0.2,6.2,0.4c2.1,0.2,4.2,0.3,6.1-0.3
		S56.9,24.4,57.7,22.6"/>
	<path class="st2" d="M57.7,22.7c-5.8-1.9-11.8,0.8-16.8,3.6l-0.1-0.4c3.1-0.2,6.2,0.5,9.3,0.4c3,0,6.2-1.1,7.6-3.9c0,0,0,0,0.1-0.1
		c0,0,0.1,0,0.1,0c0,0,0,0,0.1,0.1c0,0,0,0.1,0,0.1c-1.2,3.1-4.7,4.4-7.8,4.4c-3.1,0.1-6.2-0.7-9.2-0.6c0,0-0.1,0-0.1,0
		c0,0-0.1-0.1-0.1-0.1c0,0,0-0.1,0-0.1c0,0,0-0.1,0.1-0.1c1.3-0.7,2.6-1.4,4-2c4.1-1.8,8.7-2.9,13.1-1.5c0,0,0.1,0,0.1,0.1
		c0,0,0,0.1,0,0.1C57.8,22.6,57.8,22.7,57.7,22.7C57.8,22.7,57.7,22.7,57.7,22.7"/>
	<path class="st2" d="M59,27.1c-4,1.2-8.8,2.9-11.9,5.6c-2.6,2.3-4.2,5.4-6.7,7.8c2-1.6,4.7-2.2,7.2-3c2.4-0.8,4.8-1.9,6.8-3.6
		S58.4,29.6,59,27.1"/>
	<path class="st2" d="M59,27.2c-3.7,1.1-7.5,2.4-10.7,4.7c-1.6,1.1-2.9,2.7-4,4.2c-1.2,1.6-2.3,3.2-3.7,4.6l-0.3-0.3
		c3.2-2.5,7.5-2.7,11-4.7c3.6-1.8,6.3-4.9,7.7-8.6c0,0,0-0.1,0.1-0.1c0,0,0.1,0,0.1,0c0,0,0.1,0,0.1,0.1c0,0,0,0.1,0,0.1
		c-0.5,2-1.6,3.7-2.9,5.3c-1.3,1.5-2.9,2.8-4.7,3.8c-1.8,0.9-3.7,1.6-5.6,2.2c-1.9,0.6-3.8,1.2-5.4,2.4c0,0-0.1,0-0.1,0
		s-0.1,0-0.1-0.1c0,0-0.1-0.1-0.1-0.1c0-0.1,0-0.1,0.1-0.1c2.8-2.7,4.7-6.4,7.9-8.7c3.2-2.3,7-3.6,10.8-4.7c0,0,0.1,0,0.1,0
		c0,0,0,0,0.1,0.1C59.1,27.1,59.1,27.1,59,27.2C59.1,27.2,59.1,27.2,59,27.2"/>
	<path class="st2" d="M57,36.8c-0.8,1.9-2.5,3.1-4.3,4.2c-1.7,1.1-3.6,2-5,3.5c-1.7,1.8-2.6,4.2-4.6,5.7c1.5,0,2.9-0.3,4.3-0.8
		c3.2-1.1,6.4-2.8,8.1-5.7c1.3-2.2,1.5-4.8,1.7-7.4"/>
	<path class="st2" d="M57.1,36.9c-1.8,3.9-6.5,4.8-9.3,7.7c-1.7,1.8-2.6,4.2-4.6,5.7L43.1,50c1.8,0,3.6-0.6,5.3-1.2
		c3.4-1.3,6.6-3.5,7.7-7.1c0.6-1.7,0.8-3.6,1-5.4c0,0,0-0.1,0-0.1c0,0,0.1,0,0.1,0c0,0,0.1,0,0.1,0c0,0,0,0.1,0,0.1
		c0,1.8-0.2,3.7-0.7,5.5c-1.1,3.7-4.6,6.1-8,7.4c-0.9,0.3-1.8,0.6-2.7,0.8c-0.9,0.2-1.9,0.3-2.8,0.3c0,0-0.1,0-0.1,0
		c0,0-0.1-0.1-0.1-0.1c0,0,0-0.1,0-0.1c0,0,0-0.1,0.1-0.1c1.9-1.4,2.9-3.9,4.6-5.6c2.8-2.9,7.5-3.8,9.3-7.6
		C56.9,36.6,57.1,36.7,57.1,36.9"/>
	<path class="st2" d="M60.2,36.7c-1.1,2.3-1.9,5.9-1.5,8.4c0.4,2.5,1.5,4.9,2.7,7.1c0.9-1.8,1.3-3.8,1.4-5.8c0-2-0.4-4-1.2-5.9
		C61,39.3,60.2,38.1,60.2,36.7"/>
	<path class="st2" d="M60.3,36.8c-1.2,2.4-1.7,5.1-1.6,7.8c0.3,2.7,1.5,5.2,2.9,7.5l-0.4,0c0.6-1.2,0.9-2.5,1.1-3.8
		c0.4-2.6,0-5.3-1.1-7.7c-0.5-1.2-1.3-2.5-1.2-3.9c0,0,0-0.1,0-0.1c0,0,0.1,0,0.1,0c0,0,0.1,0,0.1,0C60.3,36.7,60.3,36.7,60.3,36.8
		c0.1,1.3,0.9,2.4,1.4,3.6c1.2,2.5,1.6,5.3,1.1,8c-0.2,1.4-0.6,2.7-1.3,3.9c0,0,0,0,0,0.1c0,0,0,0-0.1,0c0,0-0.1,0-0.1,0
		c0,0-0.1,0-0.1,0c-1.5-2.4-2.4-5-2.8-7.8c-0.2-2.7,0.4-5.5,1.6-8c0,0,0,0,0.1-0.1c0,0,0.1,0,0.1,0C60.3,36.7,60.3,36.7,60.3,36.8
		C60.3,36.7,60.3,36.8,60.3,36.8"/>
	<path class="st2" d="M66.3,26.4c-1.7,3-2.3,6.5-1.6,9.9c0.5,2.4,1.5,4.6,1.8,7c1.7-1.8,2.5-4.4,2.5-6.9s-0.8-5-1.8-7.3
		c-0.4-1-0.9-1.9-1-2.9"/>
	<path class="st2" d="M66.4,26.4c-1.4,2.5-2.1,5.4-1.8,8.3c0.2,2.9,1.7,5.6,2.1,8.5l-0.4-0.1c1-1.1,1.7-2.4,2.1-3.9
		c0.8-2.9,0.2-6-0.8-8.8c-0.5-1.4-1.3-2.8-1.4-4.3c0,0,0,0,0,0c0,0,0,0,0,0c0,0,0,0,0,0c0,0,0,0,0,0c0,0,0.1,0,0.1,0c0,0,0,0,0,0.1
		c0.2,0.7,0.4,1.4,0.8,2.1c1.7,3.4,2.8,7.4,1.8,11.2c-0.4,1.5-1.2,2.9-2.2,4c0,0,0,0-0.1,0c0,0-0.1,0-0.1,0c0,0-0.1,0-0.1,0
		c0,0,0,0-0.1,0c-0.3-1.5-0.6-2.9-1.1-4.3c-1.5-4.2-1.3-8.9,0.9-12.8c0,0,0,0,0.1-0.1c0,0,0.1,0,0.1,0
		C66.3,26.3,66.4,26.3,66.4,26.4C66.4,26.4,66.4,26.4,66.4,26.4z"/>
	<path class="st2" d="M68.5,2.1c4.8,5.1,9.9,10.2,12.9,16.7c2.2,4.7,3.4,10,6.6,14.2c1,1.4,2.3,2.6,3.7,3.6c0,0,0.1,0.1,0.1,0.1
		c0,0,0,0.1,0,0.1c0,0-0.1,0.1-0.1,0.1c0,0-0.1,0-0.1,0c-1.6-0.9-3-2-4.1-3.5c-3.4-4.2-4.5-9.6-6.6-14.4C78,12.6,73.1,7.3,68.2,2.3
		c0,0,0,0,0-0.1c0,0,0,0,0-0.1c0,0,0,0,0-0.1s0,0,0-0.1c0,0,0,0,0.1,0c0,0,0,0,0.1,0C68.4,2.1,68.4,2.1,68.5,2.1
		C68.4,2.1,68.5,2.1,68.5,2.1"/>
	<path class="st2" d="M69.1,2.9c0.7,0.8,1.6,1.3,2.6,1.8c2.8,1.5,5.8,2.4,8.8,3.5c0,0,0,0,0.1,0.1c0,0,0,0.1,0,0.1c0,0,0,0,0,0.1
		c0,0,0,0-0.1,0c-3.2-0.5-6-2-8.8-3.6c-0.9-0.5-1.9-1-2.6-1.8C68.8,3,69,2.8,69.1,2.9"/>
	<path class="st2" d="M75.8,10.1c5.2,2.7,10.8,4.1,16.2,6c0,0,0,0,0.1,0.1c0,0,0,0.1,0,0.1c0,0,0,0.1,0,0.1c0,0-0.1,0-0.1,0
		c-4.3-0.8-8.3-2.5-12.3-4.2c-1.3-0.6-2.6-1.2-3.9-1.8C75.5,10.3,75.6,10.1,75.8,10.1"/>
	<path class="st2" d="M78.7,14.3c4.4,4.7,10,8.5,15.5,11.8c0,0,0,0,0,0.1c0,0,0,0.1,0,0.1c0,0,0,0-0.1,0.1c0,0-0.1,0-0.1,0
		c-4.5-2-8.4-5.2-12.1-8.5c-1.2-1.1-2.4-2.2-3.5-3.4C78.4,14.4,78.6,14.2,78.7,14.3"/>
	<path class="st2" d="M73.4,7.4c2,6.3,3.4,13,2.5,19.6c0,0,0,0.1,0,0.1c0,0-0.1,0-0.1,0c0,0-0.1,0-0.1,0c0,0,0,0,0-0.1
		c0-4.9,0-9.9-1.1-14.7c-0.4-1.6-0.8-3.2-1.3-4.8C73.1,7.4,73.3,7.3,73.4,7.4"/>
	<path class="st2" d="M79.2,15.3c1.5,6.1,3.7,12.7,1.6,18.9c0,0,0,0-0.1,0.1c0,0-0.1,0-0.1,0c0,0-0.1,0-0.1-0.1c0,0,0-0.1,0-0.1
		c0.9-4.7,0.6-9.5-0.4-14.1c-0.4-1.6-0.7-3.1-1.2-4.6c0,0,0-0.1,0-0.1c0,0,0,0,0.1-0.1C79,15.2,79.1,15.2,79.2,15.3
		C79.1,15.2,79.1,15.2,79.2,15.3"/>
	<path class="st2" d="M75.1,6.3c1.5-0.8,3.3-1.1,5-0.7c1.4,0.3,2.7,1,4.1,1.6c1.4,0.7,2.9,1.2,4.4,1.6c-2.3,0.6-4.7,1-7.1,0.8
		c-2.4-0.2-4.8-1.3-6.1-3.2"/>
	<path class="st2" d="M75.1,6.2c2.1-1.2,4.8-1.1,7-0.1c2.2,1,4.3,2,6.6,2.6c0,0,0.1,0,0.1,0.1s0,0.1,0,0.1c0,0,0,0.1,0,0.1
		c0,0-0.1,0.1-0.1,0.1c-1.2,0.3-2.3,0.6-3.5,0.7c-1.2,0.2-2.4,0.2-3.6,0.1c-2.4-0.2-4.9-1.3-6.2-3.4c0,0,0-0.1,0-0.1
		c0,0,0-0.1,0-0.1c0,0,0.1,0,0.1,0c0,0,0.1,0,0.1,0c1.5,1.8,3.8,2.8,6.1,3c2.3,0.2,4.7-0.2,7-0.7l0,0.4c-1.1-0.3-2.3-0.8-3.4-1.2
		c-3.4-1.6-6.2-3.4-10-1.4C75.1,6.5,74.9,6.3,75.1,6.2"/>
	<path class="st2" d="M83.9,13.6c2.8-0.9,5.9-0.8,8.8,0c2.9,0.8,5.6,2.1,8.2,3.6c-2.1-0.1-4.1,0.2-6.2,0.4c-2.1,0.2-4.2,0.3-6.1-0.3
		C86.5,16.7,84.6,15.4,83.9,13.6"/>
	<path class="st2" d="M83.8,13.5c5.9-1.9,12,0.7,17.1,3.5c0,0,0.1,0.1,0.1,0.1c0,0,0,0.1,0,0.1c0,0,0,0.1-0.1,0.1c0,0-0.1,0-0.1,0
		c-3.1-0.2-6.1,0.7-9.2,0.6c-2.3,0-4.8-0.7-6.5-2.4C84.5,15,84,14.3,83.8,13.5C83.7,13.6,83.7,13.5,83.8,13.5
		C83.7,13.5,83.8,13.4,83.8,13.5C83.8,13.4,83.9,13.4,83.8,13.5c0.1-0.1,0.1-0.1,0.1,0c1.4,2.8,4.7,3.9,7.6,3.9
		c3,0.1,6.1-0.7,9.3-0.4l-0.1,0.4c-5-2.9-11-5.5-16.8-3.6C83.7,13.8,83.7,13.6,83.8,13.5"/>
	<path class="st2" d="M82.6,18.2c4,1.2,8.8,2.9,11.9,5.6c2.6,2.3,4.2,5.4,6.7,7.8c-2-1.6-4.7-2.2-7.2-3c-2.4-0.8-4.8-1.9-6.8-3.6
		S83.2,20.6,82.6,18.2"/>
	<path class="st2" d="M82.6,18c3.7,1.2,7.6,2.4,10.8,4.7c1.6,1.2,2.9,2.7,4.2,4.2c1.2,1.5,2.4,3.1,3.8,4.5c0,0,0.1,0.1,0.1,0.1
		c0,0.1,0,0.1-0.1,0.1c0,0-0.1,0.1-0.1,0.1c-0.1,0-0.1,0-0.1,0c-1.5-1.2-3.5-1.8-5.4-2.4c-3.8-1.1-7.8-2.8-10.4-5.9
		c-1.3-1.6-2.4-3.3-2.9-5.3c0,0,0-0.1,0-0.1c0,0,0,0,0.1-0.1C82.5,18,82.5,18,82.6,18C82.6,18.1,82.6,18.1,82.6,18
		c2.2,6.1,7.3,9.2,13.2,10.9c1.9,0.6,3.9,1.3,5.5,2.6l-0.3,0.3c-1.4-1.4-2.5-3-3.7-4.6c-1.2-1.6-2.4-3.1-4-4.2
		c-3.2-2.3-7-3.6-10.7-4.7C82.4,18.2,82.5,18,82.6,18z"/>
	<path class="st2" d="M84.6,27.9c0.8,1.9,2.5,3.1,4.3,4.2c1.7,1.1,3.6,2,5,3.5c1.7,1.8,2.6,4.2,4.6,5.7c-1.5,0-2.9-0.3-4.3-0.8
		c-3.2-1.1-6.4-2.8-8.1-5.7c-1.3-2.2-1.5-4.8-1.7-7.4"/>
	<path class="st2" d="M84.7,27.8c1.8,3.9,6.5,4.7,9.3,7.6c1.7,1.7,2.7,4.2,4.6,5.6c0,0,0.1,0.1,0.1,0.1c0,0,0,0.1,0,0.1
		c0,0,0,0.1-0.1,0.1c0,0-0.1,0-0.1,0c-0.9,0-1.9-0.1-2.8-0.3c-2.7-0.7-5.4-1.7-7.6-3.6c-3.1-2.4-3.9-6.5-3.9-10.2c0,0,0-0.1,0-0.1
		s0,0,0.1,0c0,0,0.1,0,0.1,0c0,0,0,0,0,0.1c0.3,3.6,1,7.4,4,9.8c1.4,1.2,3,2,4.7,2.7c1.7,0.6,3.5,1.2,5.3,1.2l-0.1,0.4
		c-2-1.6-2.9-3.9-4.6-5.7c-2.8-2.9-7.5-3.8-9.3-7.7c0,0,0-0.1,0-0.1c0,0,0-0.1,0.1-0.1C84.6,27.8,84.6,27.8,84.7,27.8
		C84.7,27.8,84.7,27.8,84.7,27.8"/>
	<path class="st2" d="M81.4,27.8c1.1,2.3,1.9,5.9,1.5,8.4c-0.4,2.5-1.5,4.9-2.7,7.1c-0.9-1.8-1.3-3.8-1.4-5.8c0-2,0.4-4,1.2-5.9
		C80.6,30.4,81.4,29.2,81.4,27.8"/>
	<path class="st2" d="M81.5,27.8c1.2,2.5,1.8,5.2,1.6,8c-0.3,2.7-1.4,5.3-2.7,7.7c0,0,0,0.1-0.1,0.1c0,0-0.1,0-0.1,0
		c0,0-0.1,0-0.1,0c0,0-0.1,0-0.1-0.1c-0.6-1.2-1-2.5-1.3-3.9c-0.5-2.7-0.1-5.5,1.1-8c0.6-1.2,1.4-2.3,1.4-3.7c0,0,0-0.1,0-0.1
		c0,0,0.1,0,0.1,0C81.4,27.7,81.4,27.7,81.5,27.8C81.5,27.8,81.5,27.8,81.5,27.8c0.1,1.4-0.7,2.7-1.2,3.9c-0.8,1.8-1.2,3.8-1.2,5.8
		c0,2,0.4,3.9,1.3,5.7l-0.4,0c0.7-1.2,1.3-2.4,1.8-3.6c0.5-1.2,0.9-2.6,1-3.9c0.2-2.7-0.4-5.4-1.6-7.8
		C81.2,27.7,81.4,27.6,81.5,27.8"/>
	<path class="st2" d="M75.3,17.4c1.7,3,2.3,6.5,1.6,9.9c-0.5,2.4-1.5,4.6-1.8,7c-1.7-1.8-2.5-4.4-2.5-6.9c0-2.5,0.8-5,1.8-7.3
		c0.4-1,0.9-1.9,1-2.9"/>
	<path class="st2" d="M75.4,17.4c1.4,2.6,2.1,5.5,1.8,8.5c-0.2,2.9-1.6,5.6-1.9,8.5c0,0,0,0.1,0,0.1c0,0-0.1,0.1-0.1,0.1
		c0,0-0.1,0-0.1,0c0,0-0.1,0-0.1-0.1c-1.1-1.1-1.9-2.5-2.2-4c-1-3.8,0.1-7.8,1.8-11.2c0.3-0.7,0.6-1.4,0.8-2.1c0,0,0-0.1,0-0.1
		c0,0,0.1,0,0.1,0c0,0,0.1,0,0.1,0c0,0,0,0.1,0,0.1c-0.2,1.5-1,2.9-1.4,4.3c-1,2.8-1.6,5.9-0.8,8.8c0.3,1.4,1.1,2.8,2.1,3.9
		l-0.4,0.1c0.2-1.5,0.7-2.9,1.1-4.3c1.5-4.1,1.4-8.8-0.8-12.6C75.1,17.4,75.4,17.2,75.4,17.4"/>
	<path class="st2" d="M130.4,11.1c4.8,5.1,9.9,10.2,12.9,16.7c2.2,4.7,3.4,10,6.6,14.2c1,1.4,2.3,2.6,3.7,3.6c0,0,0.1,0.1,0.1,0.1
		c0,0,0,0.1,0,0.1c0,0-0.1,0.1-0.1,0.1c0,0-0.1,0-0.1,0c-1.6-0.9-3-2-4.1-3.5c-3.4-4.2-4.5-9.6-6.6-14.4
		c-2.8-6.5-7.7-11.7-12.6-16.7c0,0,0,0,0-0.1c0,0,0,0,0-0.1c0,0,0,0,0-0.1c0,0,0,0,0-0.1c0,0,0,0,0.1,0c0,0,0,0,0.1,0
		C130.4,11,130.4,11,130.4,11.1C130.4,11,130.4,11,130.4,11.1"/>
	<path class="st2" d="M131.1,11.9c0.7,0.8,1.6,1.3,2.6,1.8c2.8,1.5,5.8,2.4,8.8,3.5c0,0,0,0,0.1,0.1c0,0,0,0.1,0,0.1c0,0,0,0,0,0.1
		c0,0,0,0-0.1,0c-3.2-0.5-6-2-8.8-3.6c-0.9-0.5-1.9-1-2.6-1.8C130.8,11.9,131,11.7,131.1,11.9"/>
	<path class="st2" d="M137.8,19.1c5.2,2.7,10.8,4.1,16.2,6c0,0,0,0,0.1,0.1c0,0,0,0.1,0,0.1c0,0,0,0.1,0,0.1c0,0-0.1,0-0.1,0
		c-4.3-0.8-8.3-2.5-12.3-4.2c-1.3-0.6-2.6-1.2-3.9-1.8C137.5,19.2,137.6,19,137.8,19.1z"/>
	<path class="st2" d="M140.7,23.2c4.4,4.7,10,8.5,15.5,11.8c0,0,0,0,0,0.1c0,0,0,0.1,0,0.1c0,0,0,0-0.1,0.1c0,0-0.1,0-0.1,0
		c-4.5-2-8.4-5.2-12.1-8.5c-1.2-1.1-2.4-2.2-3.5-3.4C140.4,23.3,140.6,23.1,140.7,23.2"/>
	<path class="st2" d="M135.4,16.4c2,6.3,3.4,13,2.5,19.6c0,0,0,0.1,0,0.1c0,0-0.1,0-0.1,0c0,0-0.1,0-0.1,0c0,0,0,0,0-0.1
		c0-4.9,0-9.9-1.1-14.7c-0.4-1.6-0.8-3.2-1.3-4.8C135.1,16.3,135.3,16.2,135.4,16.4"/>
	<path class="st2" d="M141.1,24.2c1.5,6.1,3.7,12.7,1.6,18.9c0,0,0,0-0.1,0.1c0,0-0.1,0-0.1,0c0,0-0.1,0-0.1-0.1c0,0,0-0.1,0-0.1
		c0.9-4.7,0.6-9.5-0.4-14.1c-0.4-1.6-0.7-3.1-1.2-4.6c0,0,0-0.1,0-0.1c0,0,0,0,0.1-0.1C141,24.1,141.1,24.1,141.1,24.2
		C141.1,24.2,141.1,24.2,141.1,24.2"/>
	<path class="st2" d="M137.1,15.2c1.5-0.8,3.3-1.1,5-0.7c1.4,0.3,2.7,1,4.1,1.6c1.4,0.7,2.9,1.2,4.4,1.6c-2.3,0.6-4.7,1-7.1,0.8
		c-2.4-0.2-4.8-1.3-6.1-3.2"/>
	<path class="st2" d="M137.1,15.1c2.1-1.2,4.8-1.1,7-0.1c2.2,1,4.3,2,6.6,2.6c0,0,0.1,0,0.1,0.1c0,0,0,0.1,0,0.1c0,0,0,0.1,0,0.1
		c0,0-0.1,0.1-0.1,0.1c-1.2,0.3-2.3,0.6-3.5,0.7c-1.2,0.2-2.4,0.2-3.6,0.1c-2.4-0.2-4.9-1.3-6.2-3.4c0,0,0-0.1,0-0.1
		c0,0,0-0.1,0-0.1c0,0,0.1,0,0.1,0c0,0,0.1,0,0.1,0c1.5,1.8,3.8,2.8,6.1,3c2.3,0.2,4.7-0.2,7-0.7l0,0.4c-1.1-0.3-2.3-0.8-3.4-1.2
		c-3.4-1.6-6.2-3.4-10-1.4C137,15.4,136.9,15.2,137.1,15.1"/>
	<path class="st2" d="M145.8,22.6c2.8-0.9,5.9-0.8,8.8,0s5.6,2.1,8.2,3.6c-2.1-0.1-4.1,0.2-6.2,0.4c-2.1,0.2-4.2,0.3-6.1-0.3
		S146.6,24.4,145.8,22.6"/>
	<path class="st2" d="M145.8,22.5c5.9-1.9,12,0.7,17.1,3.5c0,0,0.1,0.1,0.1,0.1c0,0,0,0.1,0,0.1c0,0,0,0.1-0.1,0.1c0,0-0.1,0-0.1,0
		c-3.1-0.2-6.1,0.7-9.2,0.6c-2.3,0-4.8-0.7-6.5-2.4C146.4,23.9,146,23.3,145.8,22.5C145.7,22.5,145.7,22.5,145.8,22.5
		C145.7,22.4,145.7,22.4,145.8,22.5C145.8,22.4,145.8,22.4,145.8,22.5c0.1-0.1,0.1-0.1,0.1,0c1.4,2.8,4.7,3.9,7.6,3.9
		c3,0.1,6.1-0.7,9.3-0.4l-0.1,0.4c-5-2.9-11-5.5-16.8-3.6c0,0-0.1,0-0.1,0c0,0,0,0-0.1-0.1C145.7,22.6,145.7,22.5,145.8,22.5
		C145.7,22.5,145.8,22.5,145.8,22.5"/>
	<path class="st2" d="M144.6,27.1c4,1.2,8.8,2.9,11.9,5.6c2.6,2.3,4.2,5.4,6.7,7.8c-2-1.6-4.7-2.2-7.2-3c-2.4-0.8-4.8-1.9-6.8-3.6
		C147.2,32.4,145.2,29.6,144.6,27.1"/>
	<path class="st2" d="M144.6,27c3.7,1.2,7.6,2.4,10.8,4.7c1.6,1.2,2.9,2.7,4.2,4.2c1.2,1.5,2.4,3.1,3.8,4.5c0,0,0.1,0.1,0.1,0.1
		c0,0.1,0,0.1-0.1,0.1c0,0-0.1,0.1-0.1,0.1c-0.1,0-0.1,0-0.1,0c-1.5-1.2-3.5-1.8-5.4-2.4c-3.8-1.1-7.8-2.8-10.4-5.9
		c-1.3-1.6-2.4-3.3-2.9-5.3c0,0,0-0.1,0-0.1c0,0,0,0,0.1-0.1C144.5,27,144.5,27,144.6,27C144.6,27,144.6,27,144.6,27
		c2.2,6.1,7.3,9.2,13.2,10.9c1.9,0.6,3.9,1.3,5.5,2.6l-0.3,0.3c-1.4-1.4-2.5-3-3.7-4.6c-1.2-1.6-2.4-3.1-4-4.2
		c-3.2-2.3-7-3.6-10.7-4.7C144.4,27.2,144.4,26.9,144.6,27"/>
	<path class="st2" d="M146.6,36.8c0.8,1.9,2.5,3.1,4.3,4.2c1.7,1.1,3.6,2,5,3.5c1.7,1.8,2.6,4.2,4.6,5.7c-1.5,0-2.9-0.3-4.3-0.8
		c-3.2-1.1-6.4-2.8-8.1-5.7c-1.3-2.2-1.5-4.8-1.7-7.4"/>
	<path class="st2" d="M146.7,36.8c1.8,3.9,6.5,4.7,9.3,7.6c1.7,1.7,2.7,4.2,4.6,5.6c0,0,0.1,0.1,0.1,0.1c0,0,0,0.1,0,0.1
		c0,0,0,0.1-0.1,0.1c0,0-0.1,0-0.1,0c-0.9,0-1.9-0.1-2.8-0.3c-2.7-0.7-5.4-1.7-7.6-3.6c-3.1-2.4-3.9-6.5-3.9-10.2c0,0,0-0.1,0-0.1
		c0,0,0,0,0.1,0c0,0,0.1,0,0.1,0c0,0,0,0,0,0.1c0.3,3.6,1,7.4,4,9.8c1.4,1.2,3,2,4.7,2.7c1.7,0.6,3.5,1.2,5.3,1.2l-0.1,0.4
		c-2-1.6-2.9-3.9-4.6-5.7c-2.8-2.9-7.5-3.8-9.3-7.7c0,0,0-0.1,0-0.1c0,0,0-0.1,0.1-0.1C146.6,36.7,146.6,36.7,146.7,36.8
		C146.7,36.7,146.7,36.7,146.7,36.8"/>
	<path class="st2" d="M143.3,36.7c1.1,2.3,1.9,5.9,1.5,8.4c-0.4,2.5-1.5,4.9-2.7,7.1c-0.9-1.8-1.3-3.8-1.4-5.8c0-2,0.4-4,1.2-5.9
		C142.6,39.3,143.4,38.1,143.3,36.7"/>
	<path class="st2" d="M143.4,36.7c1.2,2.5,1.8,5.2,1.6,8c-0.3,2.7-1.4,5.3-2.7,7.7c0,0,0,0.1-0.1,0.1c0,0-0.1,0-0.1,0
		c0,0-0.1,0-0.1,0c0,0-0.1,0-0.1-0.1c-0.6-1.2-1-2.5-1.3-3.9c-0.5-2.7-0.1-5.5,1.1-8c0.6-1.2,1.4-2.3,1.4-3.7c0,0,0-0.1,0-0.1
		c0,0,0.1,0,0.1,0C143.4,36.6,143.4,36.6,143.4,36.7C143.4,36.7,143.5,36.7,143.4,36.7c0.1,1.4-0.7,2.7-1.2,3.9
		c-0.8,1.8-1.2,3.8-1.2,5.8c0,2,0.4,3.9,1.3,5.7l-0.4,0c0.7-1.2,1.3-2.4,1.8-3.6c0.5-1.2,0.9-2.6,1-3.9c0.2-2.7-0.4-5.4-1.6-7.8
		C143.2,36.7,143.4,36.6,143.4,36.7"/>
	<path class="st2" d="M137.3,26.4c1.7,3,2.3,6.5,1.6,9.9c-0.5,2.4-1.5,4.6-1.8,7c-1.7-1.8-2.5-4.4-2.5-6.9c0-2.5,0.8-5,1.8-7.3
		c0.4-1,0.9-1.9,1-2.9"/>
	<path class="st2" d="M137.4,26.3c1.4,2.6,2.1,5.5,1.8,8.5c-0.2,2.9-1.6,5.6-1.9,8.5c0,0,0,0.1,0,0.1c0,0-0.1,0.1-0.1,0.1
		c0,0-0.1,0-0.1,0c0,0-0.1,0-0.1-0.1c-1.1-1.1-1.9-2.5-2.2-4c-1-3.8,0.1-7.8,1.8-11.2c0.3-0.7,0.6-1.4,0.8-2.1c0,0,0-0.1,0-0.1
		c0,0,0.1,0,0.1,0c0,0,0.1,0,0.1,0c0,0,0,0.1,0,0.1c-0.2,1.5-1,2.9-1.4,4.3c-1,2.8-1.6,5.9-0.8,8.8c0.3,1.4,1.1,2.8,2.1,3.9
		l-0.4,0.1c0.2-1.5,0.7-2.9,1.1-4.3c1.5-4.1,1.4-8.8-0.8-12.6C137.1,26.3,137.3,26.2,137.4,26.3"/>
	<path class="st2" d="M135.4,2.9c-4.7,4.9-9.5,10-12.3,16.3c-2,4.7-3.2,9.9-6.4,14c-1.1,1.4-2.4,2.5-4,3.4c0,0-0.1,0-0.1,0
		c0,0-0.1,0-0.1-0.1c0,0,0-0.1,0-0.1c0,0,0-0.1,0.1-0.1c1.4-0.9,2.6-2.1,3.6-3.5c3.1-4.1,4.3-9.2,6.4-13.9
		c2.9-6.3,7.8-11.3,12.5-16.3c0,0,0,0,0,0c0,0,0,0,0.1,0c0,0,0,0,0.1,0c0,0,0,0,0.1,0c0,0,0,0,0,0c0,0,0,0,0,0.1
		C135.4,2.8,135.4,2.9,135.4,2.9C135.4,2.9,135.4,2.9,135.4,2.9"/>
	<path class="st2" d="M134.7,3.7c-1.5,1.5-3.5,2.3-5.3,3.2c-1.9,0.9-3.8,1.7-5.8,2c0,0-0.1,0-0.1,0c0,0,0,0,0-0.1c0,0,0-0.1,0-0.1
		c0,0,0,0,0.1-0.1c2.9-1.1,5.8-2,8.5-3.5c0.9-0.5,1.8-1,2.5-1.7C134.7,3.4,134.9,3.5,134.7,3.7"/>
	<path class="st2" d="M128.2,10.7c-5.1,2.4-10.3,4.8-15.8,5.8c0,0-0.1,0-0.1,0c0,0,0,0,0-0.1c0,0,0-0.1,0-0.1c0,0,0,0,0.1-0.1
		c4-1.4,8.1-2.4,12-4.1c1.3-0.5,2.6-1.1,3.8-1.7C128.2,10.4,128.3,10.6,128.2,10.7"/>
	<path class="st2" d="M125.4,14.7c-4.5,4.5-9.3,8.9-15.2,11.6c0,0-0.1,0-0.1,0c0,0,0,0-0.1-0.1c0,0,0-0.1,0-0.1c0,0,0-0.1,0-0.1
		c3.9-2.4,8.2-5.1,11.7-8.2c1.2-1.1,2.4-2.1,3.5-3.3C125.3,14.5,125.5,14.6,125.4,14.7z"/>
	<path class="st2" d="M130.6,8c-2.2,6.1-2.5,12.6-2.4,19c0,0,0,0.1,0,0.1c0,0,0,0-0.1,0c0,0-0.1,0-0.1,0c0,0,0,0,0-0.1
		c-0.7-4.8,0-9.7,1.1-14.4c0.4-1.6,0.8-3.1,1.3-4.6c0,0,0,0,0.1-0.1c0,0,0.1,0,0.1,0C130.6,7.8,130.6,7.9,130.6,8
		C130.6,7.9,130.6,7.9,130.6,8"/>
	<path class="st2" d="M125,15.6c-1.7,5.9-2.8,12.2-1.6,18.3c0,0,0,0.1,0,0.1c0,0,0,0-0.1,0c0,0-0.1,0-0.1,0c0,0,0,0-0.1-0.1
		c-1.6-4.5-0.6-9.4,0.4-13.9c0.4-1.5,0.8-3,1.2-4.5c0,0,0-0.1,0.1-0.1s0.1,0,0.1,0C124.9,15.5,125,15.5,125,15.6
		C125,15.5,125,15.6,125,15.6"/>
	<path class="st2" d="M128.7,6.8c-1.5-0.8-3.2-1-4.9-0.7c-1.4,0.3-2.7,1-3.9,1.6c-1.4,0.6-2.8,1.2-4.3,1.6c2.3,0.5,4.6,1,6.9,0.8
		c2.3-0.2,4.6-1.2,6-3.1"/>
	<path class="st2" d="M128.6,6.9c-3.7-1.9-6.4-0.1-9.7,1.4c-1.1,0.5-2.2,0.9-3.3,1.2l0-0.4c1.1,0.3,2.3,0.5,3.4,0.6
		c3.3,0.5,7.1-0.1,9.3-2.8c0,0,0,0,0.1,0c0,0,0.1,0,0.1,0C128.5,6.9,128.6,6.9,128.6,6.9c-0.1,0.1-0.1,0.1-0.1,0.1
		c-2,3.1-6.2,3.8-9.6,3.2c-1.2-0.2-2.3-0.4-3.4-0.7c0,0-0.1,0-0.1-0.1c0,0,0-0.1,0-0.1c0,0,0-0.1,0-0.1c0,0,0.1-0.1,0.1-0.1
		c1.1-0.3,2.2-0.7,3.3-1.1c2.1-0.8,4.2-2.2,6.6-2.2c1.2,0,2.3,0.3,3.4,0.9c0,0,0,0,0,0c0,0,0,0,0,0s0,0,0,0c0,0,0,0,0,0c0,0,0,0,0,0
		C128.8,6.9,128.7,6.9,128.6,6.9C128.7,6.9,128.7,6.9,128.6,6.9C128.7,6.9,128.7,6.9,128.6,6.9"/>
	<path class="st2" d="M120.2,13.9c-2.8-0.9-5.8-0.7-8.6,0c-2.8,0.8-5.4,2.1-7.9,3.5c2-0.1,4,0.2,6,0.4s4,0.3,6-0.3
		C117.6,16.9,119.4,15.7,120.2,13.9"/>
	<path class="st2" d="M120.2,14c-5.7-1.8-11.5,0.7-16.4,3.5l-0.1-0.4c3.1-0.2,6,0.5,9,0.4c2.9,0,6.1-1.1,7.4-3.8c0,0,0,0,0.1-0.1
		c0,0,0.1,0,0.1,0c0,0,0,0,0.1,0.1c0,0,0,0.1,0,0.1c-1.2,3-4.6,4.3-7.6,4.3c-3.1,0.1-6-0.7-9-0.6c0,0-0.1,0-0.1,0
		c0,0-0.1-0.1-0.1-0.1c0,0,0-0.1,0-0.1c0,0,0-0.1,0.1-0.1c1.3-0.7,2.6-1.3,3.9-1.9c3.9-1.8,8.5-2.8,12.7-1.5c0,0,0.1,0,0.1,0.1
		c0,0,0,0.1,0,0.1C120.3,14,120.3,14,120.2,14C120.2,14,120.2,14,120.2,14"/>
	<path class="st2" d="M121.4,18.3c-3.9,1.2-8.6,2.8-11.6,5.5c-2.5,2.2-4.1,5.3-6.5,7.6c2-1.6,4.6-2.1,7-3c2.4-0.8,4.6-1.9,6.6-3.5
		C118.9,23.5,120.8,20.7,121.4,18.3"/>
	<path class="st2" d="M121.5,18.4c-3.6,1.1-7.3,2.4-10.4,4.6c-1.6,1.1-2.8,2.6-3.9,4.1c-1.2,1.5-2.3,3.1-3.6,4.5l-0.3-0.3
		c1.6-1.3,3.5-1.9,5.3-2.5c5.8-1.6,10.7-4.7,12.9-10.5c0,0,0-0.1,0.1-0.1c0,0,0.1,0,0.1,0c0,0,0.1,0,0.1,0.1c0,0,0,0.1,0,0.1
		c-0.5,1.9-1.6,3.6-2.8,5.1c-2.5,3.1-6.4,4.7-10.1,5.8c-1.9,0.6-3.7,1.1-5.2,2.3c0,0-0.1,0-0.1,0c-0.1,0-0.1,0-0.1-0.1
		c0,0-0.1-0.1-0.1-0.1c0-0.1,0-0.1,0.1-0.1c1.4-1.3,2.5-2.9,3.7-4.4c1.2-1.5,2.5-3,4-4.1c3.2-2.2,6.9-3.5,10.5-4.6c0,0,0.1,0,0.1,0
		c0,0,0,0,0.1,0.1C121.6,18.3,121.6,18.3,121.5,18.4C121.5,18.4,121.5,18.4,121.5,18.4"/>
	<path class="st2" d="M119.4,27.8c-0.8,1.8-2.5,3.1-4.2,4.1s-3.5,1.9-4.9,3.4c-1.6,1.7-2.6,4.1-4.5,5.5c1.4,0,2.9-0.3,4.2-0.8
		c3.1-1,6.3-2.7,7.9-5.6c1.2-2.1,1.5-4.7,1.6-7.2"/>
	<path class="st2" d="M119.5,27.8c-1.4,3-4.7,4.3-7.3,6c-1.3,0.9-2.4,2-3.2,3.4c-0.9,1.3-1.7,2.7-3,3.7l-0.1-0.3
		c1.8,0,3.5-0.6,5.2-1.2c1.7-0.7,3.3-1.5,4.6-2.6c2.9-2.3,3.6-6,3.9-9.5c0,0,0-0.1,0-0.1c0,0,0.1,0,0.1,0c0,0,0.1,0,0.1,0
		c0,0,0,0,0,0.1c0,3.6-0.7,7.6-3.8,9.9c-1.4,1.1-3,2-4.8,2.7c-1.7,0.6-3.5,1.2-5.3,1.1c0,0-0.1,0-0.1,0c0,0-0.1-0.1-0.1-0.1
		c0,0,0-0.1,0-0.1c0,0,0-0.1,0.1-0.1c1.2-0.9,2.1-2.3,3-3.6c0.9-1.4,2-2.5,3.3-3.4c2.6-1.7,5.8-2.9,7.2-5.9
		C119.4,27.6,119.6,27.7,119.5,27.8"/>
	<path class="st2" d="M122.6,27.7c-1.1,2.2-1.9,5.7-1.5,8.2c0.4,2.4,1.4,4.8,2.7,6.9c0.9-1.8,1.3-3.7,1.3-5.7c0-2-0.4-3.9-1.2-5.7
		C123.4,30.2,122.6,29,122.6,27.7z"/>
	<path class="st2" d="M122.7,27.8c-1.2,2.4-1.7,5-1.5,7.6c0.3,2.6,1.4,5.1,2.8,7.3l-0.4,0c1.1-2.3,1.5-5,1.1-7.5
		c-0.2-2-1.1-3.7-1.9-5.5c-0.3-0.6-0.4-1.3-0.4-2c0,0,0-0.1,0-0.1c0,0,0,0,0.1,0c0,0,0.1,0,0.1,0C122.7,27.7,122.7,27.7,122.7,27.8
		c0.1,1.3,0.8,2.4,1.4,3.5c0.6,1.2,1,2.5,1.1,3.8c0.4,2.7-0.1,5.4-1.3,7.8c0,0,0,0.1-0.1,0.1s-0.1,0-0.1,0c0,0-0.1,0-0.1,0
		c0,0-0.1,0-0.1-0.1c-2-3.4-3.4-7.5-2.4-11.4c0.3-1.3,0.7-2.6,1.3-3.8c0,0,0,0,0.1-0.1c0,0,0.1,0,0.1,0
		C122.7,27.6,122.7,27.7,122.7,27.8C122.7,27.7,122.7,27.8,122.7,27.8"/>
	<path class="st2" d="M128.5,17.6c-1.6,2.9-2.2,6.3-1.6,9.6c0.4,2.3,1.5,4.5,1.8,6.8c1.7-1.8,2.5-4.3,2.5-6.7c0-2.5-0.7-4.8-1.7-7.1
		c-0.4-0.9-0.9-1.9-1-2.9"/>
	<path class="st2" d="M128.6,17.7c-1.4,2.5-2,5.3-1.8,8.1c0.2,2.9,1.6,5.4,2,8.2l-0.3-0.1c2-2.1,2.6-5.2,2.2-8.1
		c-0.3-2.2-1-4.3-1.9-6.3c-0.3-0.7-0.5-1.4-0.6-2.2c0,0,0-0.1,0-0.1c0,0,0,0,0.1,0c0,0,0.1,0,0.1,0c0,0,0,0,0,0.1
		c0.2,0.7,0.4,1.4,0.7,2c1.6,3.3,2.8,7.2,1.8,10.9c-0.4,1.5-1.1,2.8-2.2,3.9c0,0-0.1,0-0.1,0.1c0,0-0.1,0-0.1,0c0,0-0.1,0-0.1-0.1
		c0,0,0-0.1,0-0.1c-0.2-1.4-0.6-2.7-1-4.1c-1.4-4-1.3-8.7,0.9-12.4c0,0,0,0,0.1-0.1c0,0,0.1,0,0.1,0
		C128.6,17.5,128.6,17.6,128.6,17.7C128.6,17.6,128.6,17.6,128.6,17.7"/>
	<path class="st2" d="M41.3,1.8c-5.8,1.1-11.6,2.4-16.7,5.5c-4.4,2.7-8.3,6.6-13.7,7.2c-0.7,0.1-1.5,0.1-2.2,0c0,0-0.1,0-0.1,0
		c0,0,0-0.1,0-0.1c0,0,0-0.1,0-0.1c0,0,0.1,0,0.1,0c6.1,0.1,10.7-4.4,15.7-7.3c5.2-3,11.1-4.2,16.9-5.3c0,0,0,0,0.1,0c0,0,0,0,0,0
		c0,0,0,0,0,0c0,0,0,0,0,0c0,0,0,0,0,0.1C41.4,1.7,41.4,1.7,41.3,1.8C41.4,1.8,41.4,1.8,41.3,1.8C41.3,1.8,41.3,1.8,41.3,1.8"/>
	<path class="st2" d="M28.4,5.2C23,6.2,17.4,7,12,6c0,0,0,0-0.1,0c0,0,0,0,0-0.1c0,0,0,0,0-0.1c0,0,0,0,0.1,0
		c4.1,0.2,8.2,0.4,12.3-0.1c1.4-0.2,2.7-0.4,4.1-0.6c0,0,0.1,0,0.1,0c0,0,0,0,0,0.1C28.5,5.2,28.5,5.2,28.4,5.2
		C28.5,5.2,28.4,5.2,28.4,5.2z"/>
	<path class="st2" d="M35.4,3c-4.5,3.2-7.9,7.7-11,12.2c0,0,0,0-0.1,0c0,0,0,0-0.1,0c0,0,0,0,0-0.1c0,0,0,0,0-0.1
		c1.9-3.7,4.8-6.9,7.9-9.7c1-0.9,2.1-1.8,3.2-2.6C35.4,2.8,35.6,2.9,35.4,3"/>
	<path class="st2" d="M27.7,5.7c-4.1,3.3-8,7.2-10.1,12.2c0,0,0,0-0.1,0c0,0,0,0-0.1,0c0,0,0,0-0.1,0c0,0,0,0,0-0.1
		c1.1-4,4.2-7,7.1-9.6c1-0.9,2-1.8,3-2.6C27.7,5.4,27.8,5.6,27.7,5.7z"/>
	<path class="st3" d="M23.9,5.9C20.5,4.8,16.4,3.6,12.9,4c-2.9,0.4-5.5,1.7-8.4,2.2C6.8,6.1,8.9,7,11,7.6c2.1,0.6,4.2,0.9,6.4,0.8
		S22.2,7.2,23.9,5.9"/>
	<path class="st2" d="M23.8,5.9C19.1,4.4,14.2,3.1,9.4,5C7.8,5.5,6.2,6.1,4.6,6.4l0-0.3c3.4-0.2,6.5,1.7,9.9,2
		c3.3,0.5,6.7-0.4,9.4-2.3C23.9,5.7,24.1,5.9,24,6c-4.3,3.4-9.6,3.1-14.5,1.4c-1.6-0.5-3.2-1-4.9-0.9c0,0-0.1,0-0.1,0
		c0,0-0.1-0.1-0.1-0.1c0,0,0-0.1,0-0.1c0,0,0.1-0.1,0.1-0.1c1.6-0.3,3.2-0.8,4.8-1.3c1.6-0.5,3.2-0.9,4.9-0.9c1.7,0,3.3,0.2,4.9,0.6
		c1.6,0.4,3.2,0.8,4.8,1.3c0,0,0,0,0.1,0c0,0,0,0,0,0.1C23.9,5.9,23.9,5.9,23.8,5.9C23.9,6,23.8,6,23.8,5.9z"/>
	<path class="st3" d="M17.8,11.6c-1.5,0.9-3.3,1-5,0.9c-1.7-0.1-3.4-0.3-5.1,0c-2,0.4-3.8,1.6-5.9,1.7c1,0.7,2.2,1.2,3.4,1.5
		c2.7,0.8,5.8,1.2,8.3,0c1.9-0.9,3.4-2.6,4.7-4.3"/>
	<path class="st2" d="M17.8,11.7c-2.5,1.4-5.4,0.7-8.1,0.7c-2.8-0.2-5.1,1.8-7.9,2L1.9,14c1.2,0.9,2.7,1.3,4.2,1.7
		c2.2,0.5,4.6,0.7,6.8-0.1c2.2-0.8,3.7-2.6,5.2-4.4c0,0,0,0,0.1,0c0,0,0.1,0,0.1,0c0,0,0,0,0,0.1c0,0,0,0.1,0,0.1
		c-1.4,1.9-3,3.8-5.2,4.7c-3.3,1.3-8.5,0.2-11.3-1.8c0,0,0,0-0.1-0.1c0,0,0-0.1,0-0.1c0,0,0-0.1,0.1-0.1c0,0,0.1,0,0.1,0
		c2.7-0.2,5.1-2,7.9-1.8c2.7,0,5.6,0.8,8-0.7C17.8,11.4,17.9,11.6,17.8,11.7"/>
	<path class="st3" d="M20.1,13.1c-1.9,1-4.1,3.1-5.1,5.1s-1.3,4.1-1.5,6.2c1.5-0.8,2.7-2,3.7-3.4c1-1.4,1.6-3,1.9-4.6
		C19.4,15.2,19.4,14,20.1,13.1z"/>
	<path class="st2" d="M20.1,13.2c-4.5,2.6-6.1,6.1-6.4,11.2l-0.3-0.2c1-0.6,1.8-1.3,2.6-2.1c1.5-1.6,2.6-3.7,3-5.8
		c0.2-1.1,0.3-2.3,1-3.3c0,0,0,0,0.1,0c0,0,0,0,0.1,0c0,0,0,0,0,0.1C20.2,13.1,20.2,13.1,20.1,13.2c-0.6,0.9-0.6,2.1-0.7,3.2
		c-0.4,2.3-1.5,4.4-3.1,6.1c-0.8,0.8-1.7,1.5-2.7,2.1c0,0,0,0-0.1,0c0,0,0,0-0.1,0c0,0,0,0-0.1,0c0,0,0,0,0-0.1
		c0.1-2.3,0.7-4.6,1.8-6.7c1.2-2,2.9-3.6,4.9-4.7c0,0,0,0,0.1,0c0,0,0,0,0.1,0C20.2,13.1,20.2,13.1,20.1,13.2
		C20.1,13.1,20.1,13.2,20.1,13.2z"/>
	<path class="st3" d="M29.2,8.8c-2.6,1.3-4.7,3.4-5.8,6c-0.8,1.9-1.2,3.9-2.1,5.7c2.1-0.4,3.9-1.8,5.1-3.6c1.2-1.7,1.9-3.8,2.3-5.9
		c0.2-0.9,0.3-1.7,0.7-2.5"/>
	<path class="st2" d="M29.2,8.9c-2.2,1.1-4,2.8-5.2,4.9c-1.2,2.1-1.5,4.6-2.6,6.8l-0.2-0.2c2.5-0.5,4.4-2.4,5.6-4.6
		c0.9-1.7,1.4-3.5,1.8-5.4c0.1-0.6,0.3-1.3,0.6-1.8c0,0,0,0,0,0c0,0,0,0,0,0c0,0,0,0,0,0c0,0,0,0,0,0c0,0,0,0,0,0.1c0,0,0,0,0,0.1
		c-0.2,0.6-0.4,1.2-0.5,1.8c-0.3,1.9-0.8,3.8-1.7,5.5c-1.2,2.3-3.3,4.3-5.9,4.8c0,0,0,0-0.1,0c0,0,0,0-0.1,0c0,0,0,0,0,0
		c0,0,0,0,0-0.1c1.1-2.2,1.5-4.7,2.8-6.9c1.2-2.1,3.1-3.9,5.3-5c0,0,0,0,0.1,0c0,0,0,0,0.1,0C29.3,8.8,29.3,8.8,29.2,8.9
		C29.3,8.9,29.3,8.9,29.2,8.9"/>
	<path class="st2" d="M66.5,5.8c-11.4,0.5-22.6,5.5-30.6,13.6c-2.7,2.7-4.9,5.9-6.6,9.3c0,0,0,0.1,0,0.2c0,0.1,0.1,0.1,0.1,0.1
		c0,0,0.1,0,0.2,0c0.1,0,0.1,0,0.1-0.1c2-3.2,4.3-6.1,6.9-8.8c5.2-5.3,11.7-9.7,18.8-11.9c3.6-1.2,7.3-1.8,11.1-2c0,0,0.1,0,0.1,0
		c0,0,0,0,0.1,0c0,0,0,0,0-0.1c0,0,0-0.1,0-0.1c0,0,0-0.1,0-0.1c0,0,0,0,0-0.1C66.6,5.8,66.6,5.8,66.5,5.8
		C66.6,5.8,66.5,5.8,66.5,5.8"/>
	<path class="st4" d="M66.5,5.8c-11.4,0.5-22.6,5.5-30.6,13.6c-2.7,2.7-4.9,5.9-6.6,9.3c0,0,0,0.1,0,0.2c0,0.1,0.1,0.1,0.1,0.1
		c0,0,0.1,0,0.2,0c0.1,0,0.1,0,0.1-0.1c2-3.2,4.3-6.1,6.9-8.8c5.2-5.3,11.7-9.7,18.8-11.9c3.6-1.2,7.3-1.8,11.1-2c0,0,0.1,0,0.1,0
		c0,0,0,0,0.1,0c0,0,0,0,0-0.1c0,0,0-0.1,0-0.1c0,0,0-0.1,0-0.1c0,0,0,0,0-0.1C66.6,5.8,66.6,5.8,66.5,5.8
		C66.6,5.8,66.5,5.8,66.5,5.8L66.5,5.8z"/>
	<path class="st2" d="M37,19.3c-1.9,1-3.8,2.1-5.7,3.1c-1.9,1-3.9,1.9-5.7,3.1l0.3,0.1C25,23,28.3,22,30.3,21.7
		c2.3-0.4,4.9-0.6,6.8-2.2c0,0,0,0,0-0.1c0,0,0-0.1,0-0.1C37.1,19.3,37.1,19.3,37,19.3C37,19.3,37,19.3,37,19.3
		c-3.1,2.3-9.9,0.9-11.5,4.6c-0.1,0.3-0.2,0.6-0.2,1c0,0.3,0.1,0.7,0.2,0.9c0,0,0,0,0,0.1c0,0,0,0,0.1,0c0,0,0,0,0.1,0
		c0,0,0,0,0.1,0c0.9-0.6,1.8-1.2,2.7-1.7c2.8-1.4,5.8-3.2,8.5-4.6c0,0,0,0,0.1-0.1s0-0.1,0-0.1C37.1,19.3,37.1,19.3,37,19.3
		C37.1,19.3,37,19.3,37,19.3"/>
	<path class="st4" d="M37,19.3c-1.9,1-3.8,2.1-5.7,3.1c-1.9,1-3.9,1.9-5.7,3.1l0.3,0.1C25,23,28.3,22,30.3,21.7
		c2.3-0.4,4.9-0.6,6.8-2.2c0,0,0,0,0-0.1c0,0,0-0.1,0-0.1C37.1,19.3,37.1,19.3,37,19.3C37,19.3,37,19.3,37,19.3
		c-3.1,2.3-9.9,0.9-11.5,4.6c-0.1,0.3-0.2,0.6-0.2,1c0,0.3,0.1,0.7,0.2,0.9c0,0,0,0,0,0.1c0,0,0,0,0.1,0c0,0,0,0,0.1,0
		c0,0,0,0,0.1,0c0.9-0.6,1.8-1.2,2.7-1.7c2.8-1.4,5.8-3.2,8.5-4.6c0,0,0,0,0,0c0,0,0,0,0,0c0,0,0,0,0,0c0,0,0,0,0,0c0,0,0,0,0,0
		C37.1,19.3,37.1,19.3,37,19.3C37.1,19.3,37.1,19.3,37,19.3C37,19.3,37,19.3,37,19.3z"/>
	<path class="st2" d="M41.6,14.7c-0.9,1.4-1.6,2.9-2.2,4.5c-0.3,0.9-0.7,2.3-1.1,3.1c-0.8,1.5-2.1,2.6-2.6,4.3l0.4,0
		c-0.6-1.2-0.2-2.6,0.4-3.8c0.7-1.2,1.7-2.1,2.7-3c0,0,0,0,0-0.1c0,0,0-0.1,0-0.1c0,0,0,0-0.1,0c0,0-0.1,0-0.1,0
		c-2.2,1.5-4.8,4.3-3.4,7.2c0,0,0.1,0.1,0.1,0.1c0,0,0.1,0,0.1,0c0,0,0.1,0,0.1-0.1c0,0,0.1-0.1,0.1-0.1c0.5-1.6,1.8-2.8,2.5-4.3
		c0.7-1.5,0.9-3.2,1.7-4.7c0.4-1,1-2,1.6-2.9C41.8,14.7,41.7,14.6,41.6,14.7"/>
	<path class="st4" d="M41.6,14.7c-0.9,1.4-1.6,2.9-2.2,4.5c-0.3,0.9-0.7,2.3-1.1,3.1c-0.8,1.5-2.1,2.6-2.6,4.3l0.4,0
		c-0.6-1.2-0.2-2.6,0.4-3.8c0.7-1.2,1.7-2.1,2.7-3c0,0,0,0,0-0.1c0,0,0-0.1,0-0.1c0,0,0,0-0.1,0c0,0-0.1,0-0.1,0
		c-2.2,1.5-4.8,4.3-3.4,7.2c0,0,0.1,0.1,0.1,0.1c0,0,0.1,0,0.1,0c0,0,0.1,0,0.1-0.1c0,0,0.1-0.1,0.1-0.1c0.5-1.6,1.8-2.8,2.5-4.3
		c0.7-1.5,0.9-3.2,1.7-4.7c0.4-1,1-2,1.6-2.9C41.8,14.7,41.7,14.6,41.6,14.7z"/>
	<path class="st2" d="M45.4,12.7c-1.9,1.3-4.1,2.2-6.4,2.4c-2.3,0.4-4.6,0.5-6.8-0.1l0.1,0.4c0.6-0.5,1.4-0.9,2.2-1.1
		c0.8-0.2,1.6-0.2,2.4-0.1c1.6,0.3,3.4,1.2,5.1,0.5c0,0,0,0,0.1-0.1c0,0,0-0.1,0-0.1c0,0,0,0-0.1-0.1c0,0-0.1,0-0.1,0
		c-1.7,0.4-3.3-0.5-4.9-0.8c-0.9-0.2-1.8-0.1-2.6,0.1c-0.4,0-3.1,1.2-2.2,1.6c2.3,0.5,4.7,0.4,6.9-0.1c2.3-0.3,4.5-1.1,6.5-2.4
		C45.7,12.8,45.6,12.6,45.4,12.7z"/>
	<path class="st4" d="M45.4,12.7c-1.9,1.3-4.1,2.2-6.4,2.4c-2.3,0.4-4.6,0.5-6.8-0.1l0.1,0.4c0.6-0.5,1.4-0.9,2.2-1.1
		c0.8-0.2,1.6-0.2,2.4-0.1c1.6,0.3,3.4,1.2,5.1,0.5c0,0,0,0,0.1-0.1c0,0,0-0.1,0-0.1c0,0,0,0-0.1-0.1c0,0-0.1,0-0.1,0
		c-1.7,0.4-3.3-0.5-4.9-0.8c-0.9-0.2-1.8-0.1-2.6,0.1c-0.4,0-3.1,1.2-2.2,1.6c2.3,0.5,4.7,0.4,6.9-0.1c2.3-0.3,4.5-1.1,6.5-2.4
		C45.7,12.8,45.6,12.6,45.4,12.7z"/>
	<path class="st2" d="M29.6,28.6c0.4,5,0.1,9.9-0.9,14.8c-0.2,1-0.6,1.9-1.8,1.5c-2-0.7-2.4-3-2.5-4.8c0,0,0-0.1,0-0.1
		c0,0,0,0-0.1-0.1c0,0-0.1,0-0.1,0c0,0-0.1,0-0.1,0c-0.8,0.5-1.6,1.1-2.5,1.3c-1.3,0.3-3-0.4-2.9-1.9c0.1-1.4,1.2-2.5,2.1-3.6
		c1.3-1.4,2.7-2.8,4.2-4c1.5-1.2,3.1-2.3,4.8-3.3c0,0,0,0,0-0.1c0,0,0-0.1,0-0.1c0,0,0,0-0.1,0c0,0-0.1,0-0.1,0
		c-1.7,0.9-3.4,2-4.9,3.1c-2.3,1.8-4.6,3.8-6,6.4c-0.8,1.5-0.4,3.4,1.4,3.8c1.5,0.4,3-0.5,4.2-1.4L24,40.2c0.2,1.9,0.7,4.4,2.8,5.1
		c0.5,0.2,1.1,0.1,1.5-0.3c0.4-0.4,0.5-1,0.6-1.4c0.2-1,0.3-2,0.5-3c0.6-4,0.7-8,0.4-11.9c0,0,0,0,0-0.1c0,0,0,0-0.1,0
		C29.7,28.5,29.6,28.6,29.6,28.6C29.6,28.6,29.6,28.6,29.6,28.6"/>
	<path class="st4" d="M29.6,28.6c0.4,5,0.1,9.9-0.9,14.8c-0.2,1-0.6,1.9-1.8,1.5c-2-0.7-2.4-3-2.5-4.8c0,0,0-0.1,0-0.1
		c0,0,0,0-0.1-0.1c0,0-0.1,0-0.1,0c0,0-0.1,0-0.1,0c-0.8,0.5-1.6,1.1-2.5,1.3c-1.3,0.3-3-0.4-2.9-1.9c0.1-1.4,1.2-2.5,2.1-3.6
		c1.3-1.4,2.7-2.8,4.2-4c1.5-1.2,3.1-2.3,4.8-3.3c0,0,0,0,0-0.1c0,0,0-0.1,0-0.1c0,0,0,0-0.1,0c0,0-0.1,0-0.1,0
		c-1.7,0.9-3.4,2-4.9,3.1c-2.3,1.8-4.6,3.8-6,6.4c-0.8,1.5-0.4,3.4,1.4,3.8c1.5,0.4,3-0.5,4.2-1.4L24,40.2c0.2,1.9,0.7,4.4,2.8,5.1
		c0.5,0.2,1.1,0.1,1.5-0.3c0.4-0.4,0.5-1,0.6-1.4c0.2-1,0.3-2,0.5-3c0.6-4,0.7-8,0.4-11.9c0,0,0,0,0-0.1c0,0,0,0-0.1,0
		C29.7,28.6,29.6,28.6,29.6,28.6C29.6,28.6,29.6,28.6,29.6,28.6z"/>
	<path class="st2" d="M29.4,39.1c0.4,1.1,1.2,2.7,2.6,2.4c0.4-0.1,0.7-0.5,1-0.8c0.2-0.1,0.4-0.1,0.5-0.1c1.9,0.1,1.8-2.4,1.5-3.7
		c-0.5-2.5-1.9-4.7-3.4-6.8c-0.5-0.7-1.2-1.2-2-1.7c0,0,0,0-0.1,0s0,0-0.1,0c0,0,0,0,0,0.1c0,0,0,0,0,0.1c1.4,1,2.2,2.4,3.1,3.8
		c1.1,1.8,2.1,3.6,2.2,5.7c0.1,0.9-0.2,2.3-1.3,2.2c-0.2-0.1-0.5,0-0.7,0.1c-0.2,0.1-0.3,0.3-0.4,0.5c-0.8,0.8-2,0-2.4-0.9
		c-0.2-0.4-0.4-0.7-0.5-1.1c0,0,0,0-0.1-0.1c0,0,0,0-0.1,0C29.5,39,29.4,39,29.4,39.1C29.4,39.1,29.4,39.1,29.4,39.1"/>
	<path class="st4" d="M29.4,39.1c0.4,1.1,1.2,2.7,2.6,2.4c0.4-0.1,0.7-0.5,1-0.8c0.2-0.1,0.4-0.1,0.5-0.1c1.9,0.1,1.8-2.4,1.5-3.7
		c-0.5-2.5-1.9-4.7-3.4-6.8c-0.5-0.7-1.2-1.2-2-1.7c0,0,0,0-0.1,0s0,0-0.1,0c0,0,0,0,0,0.1c0,0,0,0,0,0.1c1.4,1,2.2,2.4,3.1,3.8
		c1.1,1.8,2.1,3.6,2.2,5.7c0.1,0.9-0.2,2.3-1.3,2.2c-0.2-0.1-0.5,0-0.7,0.1c-0.2,0.1-0.3,0.3-0.4,0.5c-0.8,0.8-2,0-2.4-0.9
		c-0.2-0.4-0.4-0.7-0.5-1.1c0,0,0,0-0.1-0.1c0,0-0.1,0-0.1,0C29.5,39,29.4,39,29.4,39.1C29.4,39.1,29.4,39.1,29.4,39.1z"/>
	<path class="st2" d="M20.3,36c-0.7,0.2-1.4,0.3-2-0.1c-0.5-0.3-0.8-1.3-0.3-1.7c0,0,0,0,0,0c0,0,0,0,0,0c0,0,0,0,0,0c0,0,0,0,0,0
		c-0.6-0.2-0.9-0.9-0.8-1.5c0.1-0.6,0.5-1.1,1.1-1.5c2.3-1.3,5-1.6,7.6-2.2c1.3-0.2,2.6-0.4,3.9-0.2c0,0,0,0,0,0c0,0,0,0,0,0
		c0,0,0,0,0,0c0,0,0,0,0,0c0,0,0,0,0-0.1c0,0,0,0-0.1,0c-2-0.5-4.1,0-6,0.4c-2,0.5-6.5,1.2-6.8,3.7c-0.1,0.7,0.3,1.5,1,1.7l0-0.2
		c-0.6,0.6-0.3,1.6,0.4,2c0.7,0.4,1.5,0.4,2.2,0.2c0,0,0,0,0.1,0c0,0,0,0,0-0.1C20.4,36,20.4,36,20.3,36C20.4,36,20.3,36,20.3,36"/>
	<path class="st4" d="M20.3,36c-0.7,0.2-1.4,0.3-2-0.1c-0.5-0.3-0.8-1.3-0.3-1.7c0,0,0,0,0,0c0,0,0,0,0,0c0,0,0,0,0,0c0,0,0,0,0,0
		c-0.6-0.2-0.9-0.9-0.8-1.5c0.1-0.6,0.5-1.1,1.1-1.5c2.3-1.3,5-1.6,7.6-2.2c1.3-0.2,2.6-0.4,3.9-0.2c0,0,0,0,0,0c0,0,0,0,0,0
		c0,0,0,0,0,0c0,0,0,0,0,0c0,0,0,0,0-0.1c0,0,0,0-0.1,0c-2-0.5-4.1,0-6,0.4c-2,0.5-6.5,1.2-6.8,3.7c-0.1,0.7,0.3,1.5,1,1.7l0-0.2
		c-0.6,0.6-0.3,1.6,0.4,2c0.7,0.4,1.5,0.4,2.2,0.2c0,0,0,0,0.1,0c0,0,0,0,0-0.1C20.4,36,20.4,36,20.3,36C20.4,36,20.3,36,20.3,36z"
		/>
	<path class="st2" d="M33.1,40.5c-0.9-0.6-0.9-1.7-0.8-2.7c0.1-1,0.1-2.1-0.1-3.1c-0.3-2-1-4.1-2.4-5.6c0,0,0,0-0.1,0s0,0-0.1,0
		c0,0,0,0,0,0.1c0,0,0,0,0,0.1c1.5,2.6,2.6,5.5,2.4,8.6c-0.1,1,0,2.2,0.9,2.9c0,0,0,0,0.1,0c0,0,0,0,0.1,0S33.1,40.6,33.1,40.5
		C33.1,40.5,33.1,40.5,33.1,40.5z"/>
	<path class="st4" d="M33.1,40.5c-0.9-0.6-0.9-1.7-0.8-2.7c0.1-1,0.1-2.1-0.1-3.1c-0.3-2-1-4.1-2.4-5.6c0,0,0,0-0.1,0s0,0-0.1,0
		c0,0,0,0,0,0.1c0,0,0,0,0,0.1c1.5,2.6,2.6,5.5,2.4,8.6c-0.1,1,0,2.2,0.9,2.9c0,0,0,0,0.1,0c0,0,0,0,0.1,0S33.1,40.6,33.1,40.5
		C33.1,40.5,33.1,40.5,33.1,40.5z"/>
	<path class="st2" d="M18,34c1.1-0.2,2-0.9,2.8-1.6c2.6-1.7,5.4-3.4,8.6-3.8c0,0,0,0,0.1,0c0,0,0,0,0-0.1c0,0,0,0,0-0.1
		c0,0,0,0-0.1,0c-3.3-0.1-6.1,2-8.7,3.9c-0.9,0.6-1.7,1.4-2.7,1.5c0,0,0,0,0,0c0,0,0,0,0,0c0,0,0,0,0,0c0,0,0,0,0,0
		C17.9,33.9,17.9,33.9,18,34C17.9,34,17.9,34,18,34C18,34,18,34,18,34C18,34,18,34,18,34"/>
	<path class="st4" d="M18,34c1.1-0.2,2-0.9,2.8-1.6c2.6-1.7,5.4-3.4,8.6-3.8c0,0,0,0,0.1,0c0,0,0,0,0-0.1c0,0,0,0,0-0.1
		c0,0,0,0-0.1,0c-3.3-0.1-6.1,2-8.7,3.9c-0.9,0.6-1.7,1.4-2.7,1.5c0,0,0,0-0.1,0c0,0,0,0,0,0.1C17.9,33.9,17.9,34,18,34
		C18,34,18,34,18,34z"/>
	<path class="st2" d="M24.2,40.1c0.4-0.4,0.7-0.8,0.9-1.4c0.7-1.5,1.1-3,1.6-4.5c0.7-2,1.6-4,3-5.5c0,0,0,0,0-0.1c0,0,0-0.1,0-0.1
		c0,0,0,0-0.1,0c0,0,0,0-0.1,0c-1.7,1.4-2.6,3.5-3.3,5.5c-0.5,1.5-0.7,3.1-1.4,4.6c-0.2,0.5-0.4,1-0.8,1.3
		C24,40.1,24.1,40.2,24.2,40.1"/>
	<path class="st4" d="M24.2,40.1c0.4-0.4,0.7-0.8,0.9-1.4c0.7-1.5,1.1-3,1.6-4.5c0.7-2,1.6-4,3-5.5c0,0,0,0,0-0.1c0,0,0-0.1,0-0.1
		c0,0,0,0-0.1,0c0,0,0,0-0.1,0c-1.7,1.4-2.6,3.5-3.3,5.5c-0.5,1.5-0.7,3.1-1.4,4.6c-0.2,0.5-0.4,1-0.8,1.3
		C24,40.1,24.1,40.2,24.2,40.1z"/>
	<path class="st2" d="M162.9,0c5.7,1.4,11.6,2.7,16.7,5.9c4.9,3.1,9.3,7.8,15.4,7.9c0,0,0.1,0,0.1,0c0,0,0,0.1,0,0.1
		c0,0,0,0.1,0,0.1c0,0-0.1,0-0.1,0c-0.7,0.1-1.5,0-2.2-0.1c-5.3-0.8-9.1-4.8-13.4-7.7c-4.9-3.3-10.8-4.8-16.5-6.1c0,0,0,0,0,0
		c0,0,0,0,0,0c0,0,0,0,0,0c0,0,0,0,0-0.1c0,0,0,0,0,0C162.7,0,162.8,0,162.9,0C162.8,0,162.8,0,162.9,0C162.8,0,162.8,0,162.9,0z"/>
	<path class="st2" d="M175.6,4c5.3,1.3,10.9,1.4,16.4,1.3c0,0,0,0,0.1,0c0,0,0,0,0,0.1c0,0,0,0,0,0.1c0,0,0,0-0.1,0
		c-4.1,0.6-8.3,0.2-12.4-0.5c-1.4-0.2-2.7-0.5-4.1-0.8c0,0,0,0-0.1,0c0,0,0,0,0-0.1C175.5,4,175.5,4,175.6,4
		C175.6,4,175.6,4,175.6,4z"/>
	<path class="st2" d="M168.7,1.5C173,5,177,9.2,179.4,14.2c0,0,0,0,0,0.1c0,0,0,0,0,0.1c0,0,0,0-0.1,0c0,0,0,0-0.1,0
		c-2.2-3.5-4.5-7-7.5-9.9c-1-1-2-1.9-3.1-2.7C168.5,1.6,168.6,1.4,168.7,1.5z"/>
	<path class="st2" d="M176.4,4.4c3.8,3.6,8.4,7.3,9.7,12.6c0,0,0,0,0,0.1c0,0,0,0-0.1,0c0,0,0,0-0.1,0c0,0,0,0,0-0.1
		c-1.5-3.7-3.9-7-6.7-9.8c-1-0.9-1.9-1.9-2.9-2.7C176.2,4.5,176.3,4.3,176.4,4.4z"/>
	<path class="st3" d="M180.1,4.9c3.4-1,7.5-2,11-1.4c2.9,0.5,5.5,1.9,8.3,2.5c-2.2-0.2-4.3,0.6-6.5,1.1c-2.1,0.5-4.3,0.8-6.4,0.6
		C184.4,7.4,181.7,6.4,180.1,4.9"/>
	<path class="st2" d="M180.1,4.8c4.9-1.4,9.8-2.5,14.6-0.5c1.6,0.5,3.1,1.1,4.7,1.5c0,0,0.1,0,0.1,0.1c0,0,0,0.1,0,0.1
		c0,0,0,0.1-0.1,0.1c0,0-0.1,0-0.1,0c-1.6-0.2-3.3,0.3-4.9,0.7c-3.2,1-6.7,1.6-10,0.5c-1.6-0.5-3.2-1.3-4.5-2.4c0,0,0,0,0-0.1
		C180,4.9,180,4.9,180.1,4.8c4.7,3.2,8.8,3.3,14.3,1.7c1.6-0.4,3.3-0.9,5-0.7l-0.1,0.3c-1.6-0.4-3.2-1-4.7-1.6
		c-4.8-2.1-9.7-1-14.5,0.4C180,5,179.9,4.9,180.1,4.8"/>
	<path class="st3" d="M186,10.8c1.4,0.9,3.2,1.1,4.9,1c1.7,0,3.4-0.2,5.1,0.2c2,0.5,3.8,1.8,5.8,1.9c-1,0.7-2.2,1.1-3.4,1.4
		c-2.8,0.7-5.8,1-8.3-0.3c-1.9-1-3.3-2.7-4.5-4.4"/>
	<path class="st2" d="M186,10.8c3,1.9,6.7,0.4,10,1.2c2,0.5,3.8,1.7,5.8,1.9c0,0,0.1,0,0.1,0c0,0,0,0.1,0.1,0.1c0,0,0,0.1,0,0.1
		c0,0,0,0.1-0.1,0.1c-1.3,0.9-2.9,1.3-4.4,1.7c-3,0.7-6.6,0.6-9-1.6c-1.2-1-2.2-2.3-3-3.6c0,0,0,0,0-0.1c0,0,0,0,0-0.1
		c0,0,0,0,0.1,0c0,0,0,0,0.1,0c1,1.2,1.9,2.4,3.1,3.4c2.4,2,5.7,2.1,8.7,1.5c1.5-0.3,3-0.7,4.3-1.5l0.1,0.3c-2.8-0.3-5-2.3-7.8-2.2
		c-2.7-0.1-5.6,0.6-8.1-1C185.8,10.9,185.9,10.7,186,10.8"/>
	<path class="st3" d="M183.6,12.3c1.8,1.1,4,3.3,4.9,5.2c0.8,2,1.2,4.1,1.3,6.3c-1.4-0.9-2.7-2.1-3.6-3.5c-0.9-1.4-1.5-3-1.8-4.7
		C184.3,14.5,184.3,13.2,183.6,12.3z"/>
	<path class="st2" d="M183.7,12.2c4.4,2.8,6,6.5,6.3,11.6c0,0,0,0.1,0,0.1c0,0,0,0.1-0.1,0.1c0,0-0.1,0-0.1,0c0,0-0.1,0-0.1,0
		c-2-1.2-3.6-2.9-4.6-5c-0.8-1.5-1-3.3-1.1-5c-0.1-0.5-0.2-1.1-0.5-1.6c0,0,0,0,0-0.1c0,0,0,0,0-0.1
		C183.6,12.2,183.6,12.2,183.7,12.2C183.7,12.2,183.7,12.2,183.7,12.2c0.7,1,0.8,2.2,0.9,3.3c0.3,1.6,0.9,3.2,1.8,4.6
		c0.9,1.4,2.1,2.6,3.5,3.5l-0.3,0.2c-0.1-5.1-1.6-8.6-6.1-11.4C183.5,12.3,183.6,12.1,183.7,12.2z"/>
	<path class="st3" d="M174.7,7.7c2.6,1.4,4.6,3.6,5.6,6.3c0.8,1.9,1,3.9,1.9,5.8c-2.1-0.5-3.8-2-4.9-3.7s-1.7-3.9-2.1-5.9
		c-0.1-0.9-0.2-1.7-0.6-2.5"/>
	<path class="st2" d="M174.7,7.6c3.3,1.7,5.6,5,6.5,8.6c0.3,1.2,0.7,2.3,1.2,3.4c0,0,0,0,0,0.1c0,0,0,0,0,0.1c0,0,0,0,0,0.1
		c0,0,0,0-0.1,0c-2.6-0.4-4.7-2.6-5.8-4.9c-0.6-1.2-1-2.4-1.2-3.7c-0.3-1.2-0.3-2.5-0.7-3.7c0,0,0-0.1,0-0.1c0,0,0,0,0.1-0.1
		c0,0,0.1,0,0.1,0c0,0,0,0,0.1,0.1c0.3,0.6,0.5,1.2,0.6,1.9c0.3,1.9,0.8,3.7,1.6,5.4c1.1,2.2,3,4.2,5.4,4.8l-0.2,0.2
		c-1-2.2-1.2-4.8-2.4-6.9c-0.6-1.1-1.3-2.1-2.1-2.9c-0.9-0.9-1.8-1.6-2.9-2.2C174.5,7.7,174.6,7.5,174.7,7.6"/>
	<path class="st2" d="M137.4,4.9c11.4,0.5,22.6,5.5,30.6,13.6c2.7,2.7,4.9,5.9,6.6,9.3c0,0,0,0.1,0,0.2c0,0.1-0.1,0.1-0.1,0.1
		c0,0-0.1,0-0.2,0c-0.1,0-0.1,0-0.1-0.1c-2-3.2-4.3-6.1-6.9-8.8c-5.2-5.3-11.7-9.7-18.8-11.9c-3.6-1.2-7.3-1.8-11.1-2
		c0,0-0.1,0-0.1,0c0,0,0,0-0.1,0c0,0,0,0,0-0.1c0,0,0-0.1,0-0.1c0,0,0-0.1,0-0.1c0,0,0,0,0-0.1C137.2,5,137.2,5,137.4,4.9
		C137.3,4.9,137.3,4.9,137.4,4.9"/>
	<path class="st4" d="M137.4,4.9c11.4,0.5,22.6,5.5,30.6,13.6c2.7,2.7,4.9,5.9,6.6,9.3c0,0,0,0.1,0,0.2c0,0.1-0.1,0.1-0.1,0.1
		c0,0-0.1,0-0.2,0c-0.1,0-0.1,0-0.1-0.1c-2-3.2-4.3-6.1-6.9-8.8c-5.2-5.3-11.7-9.7-18.8-11.9c-3.6-1.2-7.3-1.8-11.1-2
		c0,0-0.1,0-0.1,0c0,0,0,0-0.1,0c0,0,0,0,0-0.1c0,0,0-0.1,0-0.1c0,0,0-0.1,0-0.1c0,0,0,0,0-0.1C137.2,5,137.2,5,137.4,4.9
		C137.3,4.9,137.3,4.9,137.4,4.9L137.4,4.9z"/>
	<path class="st2" d="M166.8,18.5c1.9,1,3.8,2.1,5.7,3.1c1.9,1,3.9,1.9,5.7,3.1l-0.3,0.1c0.9-2.6-2.4-3.6-4.4-3.9
		c-2.3-0.4-4.9-0.6-6.8-2.2c0,0,0,0,0-0.1c0,0,0-0.1,0-0.1C166.7,18.5,166.8,18.5,166.8,18.5C166.8,18.4,166.8,18.5,166.8,18.5
		c3.1,2.3,9.9,0.9,11.5,4.6c0.1,0.3,0.2,0.6,0.2,1c0,0.3-0.1,0.7-0.2,0.9c0,0,0,0,0,0.1c0,0,0,0-0.1,0c0,0,0,0-0.1,0c0,0,0,0-0.1,0
		c-0.9-0.6-1.8-1.2-2.7-1.7c-2.8-1.4-5.8-3.2-8.5-4.6c0,0,0,0-0.1-0.1c0,0,0-0.1,0-0.1C166.7,18.5,166.7,18.5,166.8,18.5
		C166.8,18.4,166.8,18.4,166.8,18.5"/>
	<path class="st4" d="M166.8,18.5c1.9,1,3.8,2.1,5.7,3.1c1.9,1,3.9,1.9,5.7,3.1l-0.3,0.1c0.9-2.6-2.4-3.6-4.4-3.9
		c-2.3-0.4-4.9-0.6-6.8-2.2c0,0,0,0,0-0.1c0,0,0-0.1,0-0.1C166.7,18.5,166.8,18.5,166.8,18.5C166.8,18.4,166.8,18.5,166.8,18.5
		c3.1,2.3,9.9,0.9,11.5,4.6c0.1,0.3,0.2,0.6,0.2,1c0,0.3-0.1,0.7-0.2,0.9c0,0,0,0,0,0.1c0,0,0,0-0.1,0c0,0,0,0-0.1,0c0,0,0,0-0.1,0
		c-0.9-0.6-1.8-1.2-2.7-1.7c-2.8-1.4-5.8-3.2-8.5-4.6c0,0,0,0-0.1-0.1c0,0,0-0.1,0-0.1C166.7,18.5,166.7,18.5,166.8,18.5
		C166.8,18.4,166.8,18.4,166.8,18.5z"/>
	<path class="st2" d="M162.3,13.8c0.9,1.4,1.6,2.9,2.2,4.5c0.3,0.9,0.7,2.3,1.1,3.1c0.8,1.5,2.1,2.6,2.6,4.3l-0.4,0
		c0.6-1.2,0.2-2.6-0.4-3.8c-0.7-1.2-1.7-2.1-2.7-3c0,0,0,0,0-0.1c0,0,0-0.1,0-0.1c0,0,0,0,0.1,0c0,0,0.1,0,0.1,0
		c2.2,1.5,4.8,4.3,3.4,7.2c0,0-0.1,0.1-0.1,0.1c0,0-0.1,0-0.1,0c0,0-0.1,0-0.1-0.1c0,0-0.1-0.1-0.1-0.1c-0.5-1.6-1.8-2.8-2.5-4.3
		c-0.7-1.5-0.9-3.2-1.7-4.7c-0.4-1-1-2-1.6-2.9C162,13.9,162.2,13.7,162.3,13.8"/>
	<path class="st4" d="M162.3,13.8c0.9,1.4,1.6,2.9,2.2,4.5c0.3,0.9,0.7,2.3,1.1,3.1c0.8,1.5,2.1,2.6,2.6,4.3l-0.4,0
		c0.6-1.2,0.2-2.6-0.4-3.8c-0.7-1.2-1.7-2.1-2.7-3c0,0,0,0,0-0.1c0,0,0-0.1,0-0.1c0,0,0,0,0.1,0c0,0,0.1,0,0.1,0
		c2.2,1.5,4.8,4.3,3.4,7.2c0,0-0.1,0.1-0.1,0.1c0,0-0.1,0-0.1,0c0,0-0.1,0-0.1-0.1c0,0-0.1-0.1-0.1-0.1c-0.5-1.6-1.8-2.8-2.5-4.3
		c-0.7-1.5-0.9-3.2-1.7-4.7c-0.4-1-1-2-1.6-2.9C162,13.9,162.2,13.7,162.3,13.8z"/>
	<path class="st2" d="M158.4,11.9c1.9,1.3,4.1,2.2,6.4,2.4c2.3,0.4,4.6,0.5,6.8-0.1l-0.1,0.4c-0.6-0.5-1.4-0.9-2.2-1.1
		c-0.8-0.2-1.6-0.2-2.4-0.1c-1.6,0.3-3.4,1.2-5.1,0.5c0,0,0,0-0.1-0.1c0,0,0-0.1,0-0.1c0,0,0,0,0.1-0.1c0,0,0.1,0,0.1,0
		c1.7,0.4,3.3-0.5,4.9-0.8c0.9-0.2,1.8-0.1,2.6,0.1c0.4,0,3.1,1.2,2.2,1.6c-2.3,0.5-4.7,0.4-6.9-0.1c-2.3-0.3-4.5-1.1-6.5-2.4
		c0,0,0,0,0-0.1c0,0,0-0.1,0-0.1C158.3,11.9,158.3,11.9,158.4,11.9C158.4,11.8,158.4,11.8,158.4,11.9"/>
	<path class="st4" d="M158.4,11.9c1.9,1.3,4.1,2.2,6.4,2.4c2.3,0.4,4.6,0.5,6.8-0.1l-0.1,0.4c-0.6-0.5-1.4-0.9-2.2-1.1
		c-0.8-0.2-1.6-0.2-2.4-0.1c-1.6,0.3-3.4,1.2-5.1,0.5c0,0,0,0-0.1-0.1c0,0,0-0.1,0-0.1c0,0,0,0,0.1-0.1c0,0,0.1,0,0.1,0
		c1.7,0.4,3.3-0.5,4.9-0.8c0.9-0.2,1.8-0.1,2.6,0.1c0.4,0,3.1,1.2,2.2,1.6c-2.3,0.5-4.7,0.4-6.9-0.1c-2.3-0.3-4.5-1.1-6.5-2.4
		c0,0,0,0,0-0.1c0,0,0-0.1,0-0.1C158.3,11.9,158.3,11.9,158.4,11.9C158.4,11.8,158.4,11.8,158.4,11.9z"/>
	<path class="st2" d="M174.3,27.8c-0.4,5-0.1,9.9,0.9,14.8c0.2,1,0.6,1.9,1.8,1.5c2-0.7,2.4-3,2.5-4.8c0,0,0-0.1,0-0.1
		c0,0,0,0,0.1-0.1c0,0,0.1,0,0.1,0c0,0,0.1,0,0.1,0c0.8,0.5,1.6,1.1,2.5,1.3c1.3,0.3,3-0.4,2.9-1.9c-0.1-1.4-1.2-2.5-2.1-3.6
		c-1.3-1.4-2.7-2.8-4.2-4c-1.5-1.2-3.1-2.3-4.8-3.3c0,0,0,0,0-0.1s0-0.1,0-0.1c0,0,0,0,0.1,0c0,0,0.1,0,0.1,0c1.7,0.9,3.4,2,4.9,3.1
		c2.3,1.8,4.6,3.8,6,6.4c0.8,1.5,0.4,3.4-1.4,3.8c-1.5,0.4-3-0.5-4.2-1.4l0.3-0.1c-0.2,1.9-0.7,4.4-2.8,5.1
		c-0.5,0.2-1.1,0.1-1.5-0.3c-0.4-0.4-0.5-1-0.6-1.4c-0.2-1-0.3-2-0.5-3c-0.6-4-0.7-8-0.4-11.9c0,0,0,0,0-0.1c0,0,0,0,0.1,0
		S174.2,27.7,174.3,27.8C174.3,27.7,174.3,27.8,174.3,27.8"/>
	<path class="st4" d="M174.3,27.8c-0.4,5-0.1,9.9,0.9,14.8c0.2,1,0.6,1.9,1.8,1.5c2-0.7,2.4-3,2.5-4.8c0,0,0-0.1,0-0.1
		c0,0,0,0,0.1-0.1c0,0,0.1,0,0.1,0c0,0,0.1,0,0.1,0c0.8,0.5,1.6,1.1,2.5,1.3c1.3,0.3,3-0.4,2.9-1.9c-0.1-1.4-1.2-2.5-2.1-3.6
		c-1.3-1.4-2.7-2.8-4.2-4c-1.5-1.2-3.1-2.3-4.8-3.3c0,0,0,0,0-0.1s0-0.1,0-0.1c0,0,0,0,0.1,0c0,0,0.1,0,0.1,0c1.7,0.9,3.4,2,4.9,3.1
		c2.3,1.8,4.6,3.8,6,6.4c0.8,1.5,0.4,3.4-1.4,3.8c-1.5,0.4-3-0.5-4.2-1.4l0.3-0.1c-0.2,1.9-0.7,4.4-2.8,5.1
		c-0.5,0.2-1.1,0.1-1.5-0.3c-0.4-0.4-0.5-1-0.6-1.4c-0.2-1-0.3-2-0.5-3c-0.6-4-0.7-8-0.4-11.9c0,0,0,0,0-0.1S174.1,27.7,174.3,27.8
		C174.2,27.7,174.2,27.7,174.3,27.8C174.2,27.7,174.3,27.8,174.3,27.8z"/>
	<path class="st2" d="M174.4,38.2c-0.4,1.1-1.2,2.7-2.6,2.4c-0.4-0.1-0.7-0.5-1-0.8c-0.2-0.1-0.4-0.1-0.5-0.1
		c-1.9,0.1-1.8-2.4-1.5-3.7c0.5-2.5,1.9-4.7,3.4-6.8c0.5-0.7,1.2-1.2,2-1.7c0,0,0,0,0.1,0c0,0,0,0,0.1,0c0,0,0,0,0,0.1
		c0,0,0,0,0,0.1c-1.4,1-2.2,2.4-3.1,3.8c-1.1,1.8-2.1,3.6-2.2,5.7c-0.1,0.9,0.2,2.3,1.3,2.2c0.2-0.1,0.5,0,0.7,0.1
		c0.2,0.1,0.3,0.3,0.4,0.5c0.8,0.8,2,0,2.4-0.9c0.2-0.4,0.4-0.7,0.5-1.1c0,0,0,0,0.1-0.1c0,0,0,0,0.1,0
		C174.4,38.1,174.4,38.1,174.4,38.2C174.4,38.2,174.4,38.2,174.4,38.2"/>
	<path class="st4" d="M174.4,38.2c-0.4,1.1-1.2,2.7-2.6,2.4c-0.4-0.1-0.7-0.5-1-0.8c-0.2-0.1-0.4-0.1-0.5-0.1
		c-1.9,0.1-1.8-2.4-1.5-3.7c0.5-2.5,1.9-4.7,3.4-6.8c0.5-0.7,1.2-1.2,2-1.7c0,0,0,0,0.1,0c0,0,0,0,0.1,0c0,0,0,0,0,0.1
		c0,0,0,0,0,0.1c-1.4,1-2.2,2.4-3.1,3.8c-1.1,1.8-2.1,3.6-2.2,5.7c-0.1,0.9,0.2,2.3,1.3,2.2c0.2-0.1,0.5,0,0.7,0.1
		c0.2,0.1,0.3,0.3,0.4,0.5c0.8,0.8,2,0,2.4-0.9c0.2-0.4,0.4-0.7,0.5-1.1c0,0,0,0,0.1-0.1c0,0,0,0,0.1,0
		C174.4,38.1,174.4,38.1,174.4,38.2C174.4,38.2,174.4,38.2,174.4,38.2z"/>
	<path class="st2" d="M183.5,35.1c0.7,0.2,1.4,0.3,2-0.1c0.5-0.3,0.8-1.3,0.3-1.7c0,0,0,0,0,0c0,0,0,0,0,0c0,0,0,0,0,0c0,0,0,0,0,0
		c0.6-0.2,0.9-0.9,0.8-1.5c-0.1-0.6-0.5-1.1-1.1-1.5c-2.3-1.3-5-1.6-7.6-2.2c-1.3-0.2-2.6-0.4-3.9-0.2c0,0,0,0,0,0c0,0,0,0,0,0
		c0,0,0,0,0,0c0,0,0,0,0,0c0,0,0,0,0-0.1c0,0,0,0,0.1,0c2-0.5,4.1,0,6,0.4c2,0.5,6.5,1.2,6.8,3.7c0.1,0.7-0.3,1.5-1,1.7l0-0.2
		c0.6,0.6,0.3,1.6-0.4,2c-0.7,0.4-1.5,0.4-2.2,0.2c0,0,0,0-0.1,0c0,0,0,0,0-0.1C183.4,35.2,183.4,35.1,183.5,35.1
		C183.5,35.1,183.5,35.1,183.5,35.1"/>
	<path class="st4" d="M183.5,35.1c0.7,0.2,1.4,0.3,2-0.1c0.5-0.3,0.8-1.3,0.3-1.7c0,0,0,0,0,0c0,0,0,0,0,0c0,0,0,0,0,0c0,0,0,0,0,0
		c0.6-0.2,0.9-0.9,0.8-1.5c-0.1-0.6-0.5-1.1-1.1-1.5c-2.3-1.3-5-1.6-7.6-2.2c-1.3-0.2-2.6-0.4-3.9-0.2c0,0,0,0,0,0c0,0,0,0,0,0
		c0,0,0,0,0,0c0,0,0,0,0,0c0,0,0,0,0-0.1c0,0,0,0,0.1,0c2-0.5,4.1,0,6,0.4c2,0.5,6.5,1.2,6.8,3.7c0.1,0.7-0.3,1.5-1,1.7l0-0.2
		c0.6,0.6,0.3,1.6-0.4,2c-0.7,0.4-1.5,0.4-2.2,0.2c0,0,0,0-0.1,0c0,0,0,0,0-0.1C183.4,35.2,183.4,35.1,183.5,35.1
		C183.5,35.1,183.5,35.1,183.5,35.1z"/>
	<path class="st2" d="M170.8,39.6c0.9-0.6,0.9-1.7,0.8-2.7c-0.1-1-0.1-2.1,0.1-3.1c0.3-2,1-4.1,2.4-5.6c0,0,0,0,0.1,0c0,0,0,0,0.1,0
		c0,0,0,0,0,0.1c0,0,0,0,0,0.1c-1.5,2.6-2.6,5.5-2.4,8.6c0.1,1,0,2.2-0.9,2.9c0,0,0,0-0.1,0c0,0,0,0-0.1,0S170.7,39.7,170.8,39.6
		C170.7,39.6,170.7,39.6,170.8,39.6z"/>
	<path class="st4" d="M170.8,39.6c0.9-0.6,0.9-1.7,0.8-2.7c-0.1-1-0.1-2.1,0.1-3.1c0.3-2,1-4.1,2.4-5.6c0,0,0,0,0.1,0c0,0,0,0,0.1,0
		c0,0,0,0,0,0.1c0,0,0,0,0,0.1c-1.5,2.6-2.6,5.5-2.4,8.6c0.1,1,0,2.2-0.9,2.9c0,0,0,0-0.1,0c0,0,0,0-0.1,0S170.7,39.7,170.8,39.6
		C170.7,39.6,170.7,39.6,170.8,39.6z"/>
	<path class="st2" d="M185.8,33.1c-1.1-0.2-2-0.9-2.8-1.6c-2.6-1.7-5.4-3.4-8.6-3.8c0,0,0,0-0.1,0c0,0,0,0,0-0.1c0,0,0,0,0-0.1
		c0,0,0,0,0.1,0c3.3-0.1,6.1,2,8.7,3.9c0.9,0.6,1.7,1.4,2.7,1.5c0,0,0,0,0.1,0c0,0,0,0,0,0.1C185.9,33.1,185.9,33.1,185.8,33.1
		C185.9,33.1,185.9,33.1,185.8,33.1"/>
	<path class="st4" d="M185.8,33.1c-1.1-0.2-2-0.9-2.8-1.6c-2.6-1.7-5.4-3.4-8.6-3.8c0,0,0,0-0.1,0c0,0,0,0,0-0.1c0,0,0,0,0-0.1
		c0,0,0,0,0.1,0c3.3-0.1,6.1,2,8.7,3.9c0.9,0.6,1.7,1.4,2.7,1.5c0,0,0,0,0.1,0c0,0,0,0,0,0.1C185.9,33.1,185.9,33.1,185.8,33.1
		C185.9,33.1,185.9,33.1,185.8,33.1z"/>
	<path class="st2" d="M179.6,39.3c-0.4-0.4-0.7-0.8-0.9-1.4c-0.7-1.5-1.1-3-1.6-4.5c-0.7-2-1.6-4-3-5.5c0,0,0,0,0-0.1
		c0,0,0-0.1,0-0.1c0,0,0,0,0.1,0c0,0,0,0,0.1,0c1.7,1.4,2.6,3.5,3.3,5.5c0.5,1.5,0.7,3.1,1.4,4.6c0.2,0.5,0.4,1,0.8,1.3
		C179.8,39.2,179.7,39.4,179.6,39.3"/>
	<path class="st4" d="M179.6,39.3c-0.4-0.4-0.7-0.8-0.9-1.4c-0.7-1.5-1.1-3-1.6-4.5c-0.7-2-1.6-4-3-5.5c0,0,0,0,0-0.1
		c0,0,0-0.1,0-0.1c0,0,0,0,0.1,0c0,0,0,0,0.1,0c1.7,1.4,2.6,3.5,3.3,5.5c0.5,1.5,0.7,3.1,1.4,4.6c0.2,0.5,0.4,1,0.8,1.3
		C179.8,39.2,179.7,39.4,179.6,39.3z"/>
</g>
</svg>
