<?xml version="1.0" encoding="UTF-8"?>
<svg id="Capa_1" data-name="Capa 1" xmlns="http://www.w3.org/2000/svg" xmlns:xlink="http://www.w3.org/1999/xlink" viewBox="0 0 119 119">
  <defs>
    <style>
      .cls-1 {
        fill: none;
      }

      .cls-1, .cls-2, .cls-3 {
        stroke-width: 0px;
      }

      .cls-2 {
        fill: #fff;
      }

      .cls-3 {
        fill: url(#Degradado_sin_nombre);
      }
    </style>
    <linearGradient id="Degradado_sin_nombre" data-name="Degradado sin nombre" x1="34.39" y1="145.6" x2="90.32" y2="-44.21" gradientTransform="translate(0 119.89) scale(1 -1)" gradientUnits="userSpaceOnUse">
      <stop offset="0" stop-color="#e9c35a"/>
      <stop offset=".22" stop-color="#cc9f2d"/>
      <stop offset=".58" stop-color="#f9cf6c"/>
      <stop offset="1" stop-color="#b3800b"/>
    </linearGradient>
  </defs>
  <rect class="cls-1" width="119" height="119"/>
  <path class="cls-3" d="M59.5,119c32.86,0,59.5-26.64,59.5-59.5S92.36,0,59.5,0,0,26.64,0,59.5s26.64,59.5,59.5,59.5Z"/>
  <path class="cls-2" d="M38.24,74.31v-.7c0-11.4,0-22.79-.01-34.19,0-.5.13-.72.63-.88,14.19-4.5,28.37-9.01,42.56-13.52.18-.06.36-.1.6-.17,0,.32,0,.58,0,.84,0,15.65-.02,31.3.04,46.95.01,3.59-1.55,6.2-4.36,8.18-2.49,1.75-5.31,2.55-8.32,2.67-3.64.14-7.03-.64-10.02-2.79-2.41-1.73-4.02-3.98-4.16-7.05-.11-2.42.81-4.47,2.45-6.2,2.3-2.43,5.21-3.64,8.46-4.13,2.32-.35,4.63-.21,6.91.38.1.03.2.03.34.04v-27.08c-.92.28-1.78.55-2.65.82-7.7,2.45-15.4,4.91-23.11,7.35-.5.16-.71.35-.7.93.07,6.28.11,12.55.16,18.83.03,4.22.07,8.44.1,12.66.02,2.02-.01,4.05.06,6.07.12,3.4-1.39,5.97-4.04,7.92-3.29,2.41-7.04,3.19-11.04,2.84-3.18-.28-6.08-1.32-8.51-3.44-1.72-1.5-2.92-3.33-3.21-5.65-.38-3.05.81-5.51,3.02-7.51,2.8-2.54,6.2-3.61,9.92-3.67,1.5-.02,3,.29,4.5.45.12.01.24.03.42.05Z"/>
</svg>